<svg id="_1" data-name="1" xmlns="http://www.w3.org/2000/svg" viewBox="0 0 323.35 332.72"><defs><style>.cls-1{opacity:0.2;}.cls-2{fill:#c8c8c8;}.cls-3{fill:#fca26e;}.cls-4{fill:#b7b7b7;}.cls-5{fill:#f5751d;}.cls-6{font-size:32px;font-family:CrossfitDemo-Black, Crossfit Demo;font-weight:800;}.cls-7{letter-spacing:0em;}.cls-8{letter-spacing:-0.01em;}</style></defs><g id="_2" data-name="2"><g id="_2-2" data-name="2" class="cls-1"><polygon class="cls-2" points="226.22 215.55 226.1 215.37 257.78 195.42 232.21 186.85 232.38 186.72 265.63 161.75 265.76 161.92 232.68 186.77 258.29 195.36 226.22 215.55"/><polygon class="cls-2" points="232.51 145.07 232.38 144.89 257.53 124.92 225.34 105.85 225.45 105.66 257.92 124.89 232.51 145.07"/><polygon class="cls-2" points="161.1 191.46 149.44 169.51 147.6 155.57 149.29 127.47 149.31 127.45 174.28 94.66 174.46 94.79 149.5 127.55 147.82 155.56 149.66 169.46 161.29 191.35 161.1 191.46"/><polygon class="cls-2" points="214.98 218.33 214.96 218.33 190.44 214.65 190.48 214.43 214.97 218.11 226.13 215.35 226.19 215.57 214.98 218.33"/><polygon class="cls-2" points="254.9 206.49 254.73 206.35 279.18 174.1 265.63 161.93 232.39 145.08 192.42 131.29 161.02 123.94 161.07 123.73 192.48 131.08 232.48 144.88 265.77 161.75 279.48 174.08 279.42 174.16 254.9 206.49"/><path class="cls-2" d="M283,270.37l0-.18,6.28-28.66v-41.8l-7-39.13-35.49-5.18,2.75,30.51,9.5,36.32v0l-9,30.65-2.48,16.55-.14-.1-16.09-11-13.24-12.16,6.6-27.93-6.74-39.69v0l13.28-29-.2-.08,40.29-11,.09-.06,0,.06,24,2.91,15.91,11,.08,0v.07l.63.44-.6-.21,3.35,26.94,8,36.94v0l-7.66,33.55-3.24,11.1Zm-.49-109.79,7,39.13v41.85l-6.24,28.49,28.41-9,3.2-11,7.66-33.53-8-36.9-3.36-27Zm-64.2,85.54,13.12,12.06,15.94,10.92,2.42-16.22,9-30.63L249.34,186l-2.75-30.6-15.16-5.76-13.28,29,6.74,39.67v0Zm53.26-107.33,10.87,21.58L311,152.52ZM247,155.23l35.21,5.13-10.88-21.61Zm-15.26-5.74,15,5.68,24.07-16.3Zm40.63-10.67,38.26,13.35-15.24-10.56Z" transform="translate(-57 -54.75)"/><text x="-57" y="-54.75"/><polygon class="cls-2" points="149.43 127.62 149.37 127.41 160.99 123.74 189.63 100.46 189.76 100.63 161.09 123.93 161.08 123.94 149.43 127.62"/><rect class="cls-2" x="194.17" y="194.33" width="34.4" height="0.22" transform="translate(-106.72 259.34) rotate(-67.23)"/><rect class="cls-2" x="255.24" y="210.88" width="37.91" height="0.22" transform="translate(-128.71 149.31) rotate(-36.43)"/><polygon class="cls-2" points="265.79 161.88 265.59 161.79 279.18 132.78 257.69 125.01 257.76 124.8 279.48 132.66 265.79 161.88"/><path class="cls-2" d="M315.11,250.22l-.16-.16,21.27-21.27V187.51l-25-34.91.17-.14,13.5,12.74,11.51,22.24v0l1.68,13.63-1.69,27.8Zm21.33-61v36l1.46-24.12ZM312.1,153.39l23.43,32.77-10.78-20.84Z" transform="translate(-57 -54.75)"/><path class="cls-2" d="M283.63,270.33h-.47l-35.74-.92-29.27-23.14h0l0-.06-13.57-36.08.23.09,20.06,8,34.18,4,0,0,30.7,19.44L250.2,252.93Zm-36.13-1.15,35.19.91L249.87,253l-31.24-6.64Zm-29.22-23.12,31.63,6.72,39.27-11.26-30.27-19.16-34.17-4-19.84-7.88Z" transform="translate(-57 -54.75)"/><circle class="cls-2" cx="232.44" cy="144.98" r="0.86"/><circle class="cls-2" cx="232.44" cy="186.72" r="0.86"/><path class="cls-2" d="M259.81,222.25a.86.86,0,1,1-.86-.85A.87.87,0,0,1,259.81,222.25Z" transform="translate(-57 -54.75)"/><circle class="cls-2" cx="192.4" cy="131.15" r="0.86"/><circle class="cls-2" cx="225.4" cy="105.76" r="0.86"/><circle class="cls-2" cx="189.69" cy="100.55" r="0.86"/><path class="cls-2" d="M225.64,218.14a.86.86,0,1,1-1.71,0,.85.85,0,0,1,.85-.85A.86.86,0,0,1,225.64,218.14Z" transform="translate(-57 -54.75)"/><path class="cls-2" d="M315.73,179.66a1,1,0,1,1-1-1A1,1,0,0,1,315.73,179.66Z" transform="translate(-57 -54.75)"/><path class="cls-2" d="M323.79,216.58a1,1,0,1,1-1-1A1,1,0,0,1,323.79,216.58Z" transform="translate(-57 -54.75)"/><path class="cls-2" d="M315.73,250.14a1,1,0,1,1-1-1A1,1,0,0,1,315.73,250.14Z" transform="translate(-57 -54.75)"/><path class="cls-2" d="M250.63,252.9a1,1,0,1,1-1-1A1,1,0,0,1,250.63,252.9Z" transform="translate(-57 -54.75)"/><path class="cls-2" d="M219,178.65a1,1,0,1,1-1-1A1,1,0,0,1,219,178.65Z" transform="translate(-57 -54.75)"/><path class="cls-3" d="M295.36,142.74a1,1,0,0,1-.3-.05l-2.39,14.79.33.06,2.39-14.81Z" transform="translate(-57 -54.75)"/><path class="cls-3" d="M207,183,219,193.82a1.46,1.46,0,0,1,.17-.3L207.24,182.8A1.26,1.26,0,0,1,207,183Z" transform="translate(-57 -54.75)"/><path class="cls-3" d="M226.75,162,207,181.41l.08.05a1,1,0,0,1,.15.19L227,162.24A.72.72,0,0,1,226.75,162Z" transform="translate(-57 -54.75)"/><path class="cls-3" d="M258.79,142.29a.76.76,0,0,1-.09-.09l-30.12,18.29a1.89,1.89,0,0,1,.2.27l30.1-18.29A.51.51,0,0,1,258.79,142.29Z" transform="translate(-57 -54.75)"/><path class="cls-3" d="M260.71,141.58c0,.11,0,.22,0,.33l33.54-.23a.29.29,0,0,1,0-.09v0a1.27,1.27,0,0,1,0-.2Z" transform="translate(-57 -54.75)"/><path class="cls-3" d="M260.64,142.18a.56.56,0,0,1-.09.17l31,15.75,0-.06a.83.83,0,0,1,.16-.21L260.66,142C260.65,142.09,260.65,142.13,260.64,142.18Z" transform="translate(-57 -54.75)"/><path class="cls-3" d="M259.34,142.83l-5.75,26,.11.05h.22l5.75-26A.89.89,0,0,1,259.34,142.83Z" transform="translate(-57 -54.75)"/><path class="cls-3" d="M227.52,162.59a.94.94,0,0,1-.15-.06L220,193.15a1,1,0,0,1,.19.12.76.76,0,0,1,.09.09l7.37-30.74A.51.51,0,0,1,227.52,162.59Z" transform="translate(-57 -54.75)"/><path class="cls-3" d="M228.89,161.57s0,0,0,0l23.81,7.87s0-.09.07-.14a.22.22,0,0,1,.05-.08v0s0,0,0,0l-23.88-7.9A.71.71,0,0,1,228.89,161.57Z" transform="translate(-57 -54.75)"/><path class="cls-3" d="M258.61,142.1a.76.76,0,0,1-.09-.18l-26.34,7.16a1.72,1.72,0,0,1,.07.21.41.41,0,0,0,0,.11l26.45-7.19Z" transform="translate(-57 -54.75)"/><path class="cls-3" d="M230.81,150.44c-.79,2.31-2.26,7.6-2.85,9.77a.59.59,0,0,1,.32,0c.95-3.45,2.2-7.85,2.85-9.76A.59.59,0,0,1,230.81,150.44Z" transform="translate(-57 -54.75)"/><path class="cls-3" d="M324.4,164.8l.07-.06L296.42,142.1a.83.83,0,0,1-.19.26h0l27.95,22.56A.59.59,0,0,1,324.4,164.8Z" transform="translate(-57 -54.75)"/><path class="cls-3" d="M229,232a1.17,1.17,0,0,1-.17.28l31.33,17.61a.44.44,0,0,1,.07-.19l.08-.11Z" transform="translate(-57 -54.75)"/><path class="cls-3" d="M253.65,212.25l6.94,37.15h0l.13,0,.15-.05L254,212.15A1,1,0,0,1,253.65,212.25Z" transform="translate(-57 -54.75)"/><path class="cls-3" d="M254.47,211.13a.87.87,0,0,1,0,.36l38.06,13.63a.49.49,0,0,1,.18-.28Z" transform="translate(-57 -54.75)"/><path class="cls-3" d="M284.51,190.39a1.51,1.51,0,0,1-.18.09l-.12.05L293,224.46a.63.63,0,0,1,.33-.06Z" transform="translate(-57 -54.75)"/><path class="cls-3" d="M296.87,256.11a1.37,1.37,0,0,1,0,.35L311,261.08s0-.07,0-.1a.65.65,0,0,1,0-.24Z" transform="translate(-57 -54.75)"/><path class="cls-3" d="M317.27,192.21l-23.75-32.85a.88.88,0,0,1-.25.22L317,192.31A.67.67,0,0,1,317.27,192.21Z" transform="translate(-57 -54.75)"/><path class="cls-3" d="M324.68,231.36l-6.76-37.49a.63.63,0,0,1-.19,0l-.14,0,6.77,37.56A.71.71,0,0,1,324.68,231.36Z" transform="translate(-57 -54.75)"/><path class="cls-3" d="M227.24,231.23l-19.71-6.82a1,1,0,0,1-.13.3l19.68,6.82A.67.67,0,0,1,227.24,231.23Z" transform="translate(-57 -54.75)"/><path class="cls-3" d="M207.24,224.9a.88.88,0,0,1-.25.22l24.24,32.68a.8.8,0,0,1,.27-.18Z" transform="translate(-57 -54.75)"/><path class="cls-3" d="M220,195.6l7.76,35.25a.5.5,0,0,1,.22-.1h.09l-7.74-35.17A.89.89,0,0,1,220,195.6Z" transform="translate(-57 -54.75)"/><path class="cls-3" d="M221,194.79a.76.76,0,0,1,0,.21l-.06.11,31.71,15.57a1,1,0,0,1,.19-.27Z" transform="translate(-57 -54.75)"/><path class="cls-3" d="M232.93,258.91a.66.66,0,0,1-.09.19.39.39,0,0,1-.08.1l38.12,13.55a.67.67,0,0,1,.19-.28Z" transform="translate(-57 -54.75)"/><path class="cls-3" d="M253.42,170.64v39.22a.55.55,0,0,1,.33-.05V170.63A.74.74,0,0,1,253.42,170.64Z" transform="translate(-57 -54.75)"/><path class="cls-3" d="M284.51,188.18l8-28.37a1.14,1.14,0,0,1-.32-.07l-8,28.34A1,1,0,0,1,284.51,188.18Z" transform="translate(-57 -54.75)"/><path class="cls-3" d="M282.87,188.65a1.15,1.15,0,0,1,.21-.23L254.51,170a1,1,0,0,1-.18.27l28.53,18.39Z" transform="translate(-57 -54.75)"/><path class="cls-3" d="M261.19,251.11l10.24,21.12h0a.57.57,0,0,1,.31-.07L261.48,251A.83.83,0,0,1,261.19,251.11Z" transform="translate(-57 -54.75)"/><path class="cls-3" d="M261.92,250.14a.66.66,0,0,1,0,.23l-.05.09L295.1,256s0-.06,0-.09a.64.64,0,0,1,.11-.2v0Z" transform="translate(-57 -54.75)"/><path class="cls-3" d="M293.35,226.51l2.46,28.67a.52.52,0,0,1,.18,0l.16.06-2.47-28.86A.64.64,0,0,1,293.35,226.51Z" transform="translate(-57 -54.75)"/><path class="cls-3" d="M294.19,225.27a.67.67,0,0,1,0,.34l29.45,6.62a1,1,0,0,1,.16-.3Z" transform="translate(-57 -54.75)"/><path class="cls-3" d="M254.59,169.5,291.45,159h0a.88.88,0,0,1,0-.32l-37,10.53A.65.65,0,0,1,254.59,169.5Z" transform="translate(-57 -54.75)"/><path class="cls-3" d="M206.5,183.21l-.12,0v39.82a.61.61,0,0,1,.27.08l.06.05v-40Z" transform="translate(-57 -54.75)"/><path class="cls-3" d="M220.65,194l.06.08,32.23-23.76a1.32,1.32,0,0,1-.12-.2.56.56,0,0,0,0-.08l-32.2,23.73A1.55,1.55,0,0,1,220.65,194Z" transform="translate(-57 -54.75)"/><path class="cls-3" d="M219.35,195.44l-.06,0-12.48,27.86a.48.48,0,0,1,.3.13l12.47-27.85Z" transform="translate(-57 -54.75)"/><path class="cls-3" d="M324.15,164.94h0l-30.36-6.39a1.22,1.22,0,0,1,0,.33L324,165.24A.7.7,0,0,1,324.15,164.94Z" transform="translate(-57 -54.75)"/><path class="cls-3" d="M317.79,192.15h.14L324.81,166a.6.6,0,0,1-.35,0l-6.87,26.15A.6.6,0,0,1,317.79,192.15Z" transform="translate(-57 -54.75)"/><path class="cls-3" d="M318.34,193.34,337,200.17a1.41,1.41,0,0,1,0-.2.45.45,0,0,1,.06-.12L318.34,193l0,.09,0,0A.55.55,0,0,1,318.34,193.34Z" transform="translate(-57 -54.75)"/><path class="cls-3" d="M325,231.43a.65.65,0,0,1,.18.15L337.92,201a.49.49,0,0,1-.33-.06l-12.71,30.44Z" transform="translate(-57 -54.75)"/><path class="cls-3" d="M296.7,255.69,324,233.09a1,1,0,0,1-.22-.24l-27.28,22.6A1.75,1.75,0,0,1,296.7,255.69Z" transform="translate(-57 -54.75)"/><path class="cls-3" d="M272.88,272.53l22.33-15.72,0,0a.94.94,0,0,1-.1-.28l-22.43,15.8A.66.66,0,0,1,272.88,272.53Z" transform="translate(-57 -54.75)"/><path class="cls-3" d="M294,224.8h0l23.2-31.1h0l0,0-.05,0a.67.67,0,0,1-.15-.14l-23.18,31.06A2.5,2.5,0,0,1,294,224.8Z" transform="translate(-57 -54.75)"/><path class="cls-3" d="M292.54,226.06a.52.52,0,0,1-.1-.26l-31,23.69.06.06a1,1,0,0,1,.2.16l30.84-23.6h0Z" transform="translate(-57 -54.75)"/><path class="cls-3" d="M228.23,232.66l-.16,0c1.16,8.39,2.91,20.7,3.68,24.84a1.62,1.62,0,0,1,.31,0c-.69-3.85-2.43-16-3.67-24.91A.44.44,0,0,1,228.23,232.66Z" transform="translate(-57 -54.75)"/><path class="cls-3" d="M228.79,231a1.35,1.35,0,0,1,.14.22l23.78-19.33a.56.56,0,0,1-.1-.15.11.11,0,0,1,0,0l-.07-.08L228.73,231Z" transform="translate(-57 -54.75)"/><path class="cls-3" d="M260.11,250.2,233,258.41a1,1,0,0,1,0,.34l27.12-8.2a.47.47,0,0,1,0-.17A1.13,1.13,0,0,1,260.11,250.2Z" transform="translate(-57 -54.75)"/><path class="cls-3" d="M285.14,189.19a1.22,1.22,0,0,1,0,.33l31.55,3.42a1,1,0,0,1,.06-.32Z" transform="translate(-57 -54.75)"/><path class="cls-3" d="M282.65,190,254.27,210.3a.53.53,0,0,1,0,.37h0l0,0,28.55-20.4A1.58,1.58,0,0,1,282.65,190Z" transform="translate(-57 -54.75)"/><path class="cls-3" d="M337.78,199.28l-12.54-33.41a.56.56,0,0,1-.31.12l12.51,33.32A.66.66,0,0,1,337.78,199.28Z" transform="translate(-57 -54.75)"/><path class="cls-3" d="M312.3,260.48l12.13-27.21h-.09a.75.75,0,0,1-.24-.08L312,260.32A.64.64,0,0,1,312.3,260.48Z" transform="translate(-57 -54.75)"/><path class="cls-3" d="M335.48,228.92l-10.21,3a.67.67,0,0,1,0,.24l.06.1,10.15-3a2.17,2.17,0,0,1,0-.25Z" transform="translate(-57 -54.75)"/><path class="cls-3" d="M270.8,138.92a.62.62,0,0,1-.14-.31l-10,2.72a.64.64,0,0,1,0,.2v.13Z" transform="translate(-57 -54.75)"/><path class="cls-3" d="M272.35,138.55a.56.56,0,0,1-.11.32l22,2.65a1,1,0,0,1,.05-.3Z" transform="translate(-57 -54.75)"/><path class="cls-3" d="M311,152.11,296.46,142a.8.8,0,0,1-.18.27l14.49,10A.54.54,0,0,1,311,152.11Z" transform="translate(-57 -54.75)"/><path class="cls-3" d="M324.4,164.8l.09-.08-12.6-11.9a.67.67,0,0,1-.16.3l12.48,11.77A.82.82,0,0,1,324.4,164.8Z" transform="translate(-57 -54.75)"/><path class="cls-3" d="M336,186.91l.19,0-10.89-21a.75.75,0,0,1-.29.16l10.85,21Z" transform="translate(-57 -54.75)"/><path class="cls-3" d="M338,199.34l.06,0L336.56,188a.66.66,0,0,1-.31.16l1.46,11.09A.82.82,0,0,1,338,199.34Z" transform="translate(-57 -54.75)"/><path class="cls-3" d="M312.42,260.64l23.28-30.7a.75.75,0,0,1-.22-.25L312.19,260.4A.59.59,0,0,1,312.42,260.64Z" transform="translate(-57 -54.75)"/><path class="cls-3" d="M283.57,269.48l0,0a.83.83,0,0,1,.12.16l27.4-8.11-.07-.18a.7.7,0,0,1,0-.14l-27.55,8.16Z" transform="translate(-57 -54.75)"/><path class="cls-3" d="M282.59,269.65l-9.72,2.88a.52.52,0,0,1,.07.32l9.53-2.82A.68.68,0,0,1,282.59,269.65Z" transform="translate(-57 -54.75)"/><path class="cls-3" d="M246.8,268.83a.37.37,0,0,1,.07-.14l-14-9.61v0a1,1,0,0,1-.12.16l-.06.08,14,9.61A.37.37,0,0,1,246.8,268.83Z" transform="translate(-57 -54.75)"/><path class="cls-3" d="M270.93,272.64,248,269.21a.5.5,0,0,1,0,.12s0,0,0,.05a.77.77,0,0,1,0,.15L270.86,273s0,0,0-.05A.69.69,0,0,1,270.93,272.64Z" transform="translate(-57 -54.75)"/><path class="cls-3" d="M204.8,211.11h-.15l1.58,12a.65.65,0,0,1,.34,0l-1.59-12A.37.37,0,0,1,204.8,211.11Z" transform="translate(-57 -54.75)"/><path class="cls-3" d="M206.5,183.21l-.18.06-1.72,26.26a.54.54,0,0,1,.33,0l1.72-26.36Z" transform="translate(-57 -54.75)"/><path class="cls-3" d="M230.75,150.42a.49.49,0,0,1-.18-.17L207,181.39a.41.41,0,0,1,.11.07.7.7,0,0,1,.13.16l23.59-31.17Z" transform="translate(-57 -54.75)"/><path class="cls-3" d="M206.86,225.18l11,20.67a.57.57,0,0,1,.28-.17l-11-20.67A.88.88,0,0,1,206.86,225.18Z" transform="translate(-57 -54.75)"/><path class="cls-3" d="M218.79,246.89h0L231.05,258a.88.88,0,0,1,.22-.25l-12.34-11.17A.53.53,0,0,1,218.79,246.89Z" transform="translate(-57 -54.75)"/><path class="cls-3" d="M336.4,228.31h0l.07,0,.07,0,1.62-27.43a.64.64,0,0,1-.33.08l-1.61,27.2A.59.59,0,0,1,336.4,228.31Z" transform="translate(-57 -54.75)"/><path class="cls-3" d="M208.15,224.24a1.6,1.6,0,1,1-1.6-1.6A1.6,1.6,0,0,1,208.15,224.24Z" transform="translate(-57 -54.75)"/><path class="cls-3" d="M208.15,182.26a1.6,1.6,0,1,1-1.6-1.6A1.6,1.6,0,0,1,208.15,182.26Z" transform="translate(-57 -54.75)"/><path class="cls-3" d="M233,149.47a1.6,1.6,0,1,1-1.6-1.6A1.6,1.6,0,0,1,233,149.47Z" transform="translate(-57 -54.75)"/><path class="cls-3" d="M261.34,141.75a1.6,1.6,0,1,1-1.6-1.6A1.59,1.59,0,0,1,261.34,141.75Z" transform="translate(-57 -54.75)"/><path class="cls-3" d="M297,141.75a1.6,1.6,0,1,1-1.6-1.6A1.6,1.6,0,0,1,297,141.75Z" transform="translate(-57 -54.75)"/><path class="cls-3" d="M326.43,165.39a1.6,1.6,0,1,1-1.59-1.59A1.59,1.59,0,0,1,326.43,165.39Z" transform="translate(-57 -54.75)"/><path class="cls-3" d="M339.61,199.73a1.6,1.6,0,1,1-1.6-1.6A1.6,1.6,0,0,1,339.61,199.73Z" transform="translate(-57 -54.75)"/><path class="cls-3" d="M337.93,228.84a1.6,1.6,0,1,1-1.6-1.6A1.6,1.6,0,0,1,337.93,228.84Z" transform="translate(-57 -54.75)"/><path class="cls-3" d="M313.41,261.17a1.6,1.6,0,1,1-1.6-1.6A1.6,1.6,0,0,1,313.41,261.17Z" transform="translate(-57 -54.75)"/><circle class="cls-3" cx="214.97" cy="218.22" r="1.6"/><path class="cls-3" d="M233.44,258.59a1.6,1.6,0,1,1-1.6-1.6A1.6,1.6,0,0,1,233.44,258.59Z" transform="translate(-57 -54.75)"/><path class="cls-3" d="M272.52,138.59a1.16,1.16,0,1,1-1.16-1.16A1.16,1.16,0,0,1,272.52,138.59Z" transform="translate(-57 -54.75)"/><circle class="cls-3" cx="254.35" cy="97.79" r="0.97"/><path class="cls-3" d="M337.49,187.33a1.16,1.16,0,1,1-1.16-1.16A1.16,1.16,0,0,1,337.49,187.33Z" transform="translate(-57 -54.75)"/><path class="cls-3" d="M284.32,270.21a1.16,1.16,0,1,1-1.16-1.16A1.16,1.16,0,0,1,284.32,270.21Z" transform="translate(-57 -54.75)"/><path class="cls-3" d="M248.62,269.05a1.16,1.16,0,1,1-1.16-1.16A1.16,1.16,0,0,1,248.62,269.05Z" transform="translate(-57 -54.75)"/><path class="cls-3" d="M219.2,246.64a1.16,1.16,0,1,1-1.16-1.16A1.16,1.16,0,0,1,219.2,246.64Z" transform="translate(-57 -54.75)"/><path class="cls-3" d="M206.11,210.3a1.16,1.16,0,1,1-1.16-1.16A1.16,1.16,0,0,1,206.11,210.3Z" transform="translate(-57 -54.75)"/><path class="cls-3" d="M229.48,161.49a1.6,1.6,0,1,1-1.6-1.6A1.6,1.6,0,0,1,229.48,161.49Z" transform="translate(-57 -54.75)"/><path class="cls-3" d="M221.84,194.44a1.9,1.9,0,1,1-1.9-1.9A1.9,1.9,0,0,1,221.84,194.44Z" transform="translate(-57 -54.75)"/><path class="cls-3" d="M230,231.57a1.9,1.9,0,1,1-1.9-1.9A1.9,1.9,0,0,1,230,231.57Z" transform="translate(-57 -54.75)"/><path class="cls-3" d="M262.65,250.14a1.9,1.9,0,1,1-1.9-1.9A1.9,1.9,0,0,1,262.65,250.14Z" transform="translate(-57 -54.75)"/><path class="cls-3" d="M298,256a1.9,1.9,0,1,1-1.9-1.89A1.9,1.9,0,0,1,298,256Z" transform="translate(-57 -54.75)"/><path class="cls-3" d="M326.58,232.34a1.9,1.9,0,1,1-1.9-1.9A1.9,1.9,0,0,1,326.58,232.34Z" transform="translate(-57 -54.75)"/><path class="cls-3" d="M319.22,193a1.9,1.9,0,1,1-1.9-1.9A1.9,1.9,0,0,1,319.22,193Z" transform="translate(-57 -54.75)"/><path class="cls-3" d="M294.73,158.48a1.9,1.9,0,1,1-1.9-1.9A1.9,1.9,0,0,1,294.73,158.48Z" transform="translate(-57 -54.75)"/><path class="cls-3" d="M255.49,169.87a1.9,1.9,0,1,1-1.9-1.9A1.9,1.9,0,0,1,255.49,169.87Z" transform="translate(-57 -54.75)"/><path class="cls-3" d="M255.49,211a1.9,1.9,0,1,1-1.9-1.9A1.9,1.9,0,0,1,255.49,211Z" transform="translate(-57 -54.75)"/><path class="cls-3" d="M286.19,189.23a2.13,2.13,0,1,1-2.13-2.12A2.13,2.13,0,0,1,286.19,189.23Z" transform="translate(-57 -54.75)"/><path class="cls-3" d="M295.31,225.34a1.9,1.9,0,1,1-1.9-1.9A1.9,1.9,0,0,1,295.31,225.34Z" transform="translate(-57 -54.75)"/></g><path class="cls-4" d="M253.39,371,323,327.16a1.08,1.08,0,0,1-.45-.3l-69.37,43.68A2.67,2.67,0,0,1,253.39,371Z" transform="translate(-57 -54.75)"/><path class="cls-4" d="M322.62,325.1l-55.94-18.75,74-55.57a1.63,1.63,0,0,1-.11-.42l0-.09-74.51,56-.38.29,56.73,19A1.62,1.62,0,0,1,322.62,325.1Z" transform="translate(-57 -54.75)"/><path class="cls-4" d="M78.67,169.5c.06,0,.1.1.16.15L133,98.58l-.16-.13-.1-.12a.52.52,0,0,1-.13-.06l-54.16,71.1Z" transform="translate(-57 -54.75)"/><path class="cls-4" d="M77.08,173.32a2.09,2.09,0,0,1-.3-.14l-3.62,60.17h0a1,1,0,0,1,.45-.07h0l3.6-59.93A1.08,1.08,0,0,1,77.08,173.32Z" transform="translate(-57 -54.75)"/><path class="cls-4" d="M73.78,237.24a2.81,2.81,0,0,1-.49-.05L77,265.1a1.23,1.23,0,0,1,.51,0L73.8,237.24Z" transform="translate(-57 -54.75)"/><path class="cls-4" d="M78.22,268.71l-.08.06,25.22,47.48,0,0,.42-.16L78.57,268.54A1.42,1.42,0,0,1,78.22,268.71Z" transform="translate(-57 -54.75)"/><path class="cls-4" d="M227.67,377.35a2,2,0,0,1,.21.47l21.77-5.37a2.22,2.22,0,0,1-.09-.37V372Z" transform="translate(-57 -54.75)"/><path class="cls-4" d="M172,369.51a.88.88,0,0,1,0,.16,1,1,0,0,1-.09.33l52.37,7.85a1.23,1.23,0,0,1,0-.5Z" transform="translate(-57 -54.75)"/><path class="cls-4" d="M173.5,179.2l-68.25-16a2.6,2.6,0,0,0-.1.25c0,.08,0,.15,0,.23l68.39,16A1.29,1.29,0,0,1,173.5,179.2Z" transform="translate(-57 -54.75)"/><path class="cls-4" d="M371.6,276l-28.55-25.66a.94.94,0,0,0-.1.1,1,1,0,0,1-.06.43l28.3,25.44A4.4,4.4,0,0,0,371.6,276Z" transform="translate(-57 -54.75)"/><path class="cls-4" d="M318.43,349.68h0l53.2-70.14a1.43,1.43,0,0,1-.31-.42l-53.13,70.06A1,1,0,0,1,318.43,349.68Z" transform="translate(-57 -54.75)"/><path class="cls-4" d="M251.39,121.85l63.34-17.42c-.05-.05-.11-.09-.15-.14a1,1,0,0,1-.18-.29l-63.13,17.37A1.88,1.88,0,0,1,251.39,121.85Z" transform="translate(-57 -54.75)"/><path class="cls-4" d="M324.82,324.9s0,0,.06.05l16.72-73.24a1.05,1.05,0,0,1-.46-.23l-16.73,73.29A.9.9,0,0,1,324.82,324.9Z" transform="translate(-57 -54.75)"/><path class="cls-4" d="M317.94,349,324,328.25a1.2,1.2,0,0,1-.46-.21l-6.06,20.76A1.1,1.1,0,0,1,317.94,349Z" transform="translate(-57 -54.75)"/><path class="cls-4" d="M253.52,371.38l61.84-19.51h0a1.14,1.14,0,0,1-.13-.45l-61.84,19.51A2,2,0,0,1,253.52,371.38Z" transform="translate(-57 -54.75)"/><path class="cls-4" d="M135.83,96.45s0,.09,0,.13L223.29,72.8a1.06,1.06,0,0,1-.09-.5L135.76,96.09A1.15,1.15,0,0,1,135.83,96.45Z" transform="translate(-57 -54.75)"/><path class="cls-4" d="M167.63,109.36,135.87,97.29a1.74,1.74,0,0,1-.14.48l31.77,12.06A1.32,1.32,0,0,1,167.63,109.36Z" transform="translate(-57 -54.75)"/><path class="cls-4" d="M170.22,109.46l53.47-36.2a1,1,0,0,1-.36-.36l-53.44,36.18a1.54,1.54,0,0,1,.17.19A1,1,0,0,1,170.22,109.46Z" transform="translate(-57 -54.75)"/><path class="cls-4" d="M104.25,161.57a.78.78,0,0,1,.34.05L133.35,98.8a1.65,1.65,0,0,1-.43-.26l-28.87,63.05Z" transform="translate(-57 -54.75)"/><path class="cls-4" d="M104.12,165.09a1.21,1.21,0,0,1-.38.12l14.68,86.39a1.18,1.18,0,0,1,.47-.18l-14.67-86.36Z" transform="translate(-57 -54.75)"/><path class="cls-4" d="M118.44,254.61,103.93,316a1.65,1.65,0,0,1,.53-.07l14.46-61.19A1,1,0,0,1,118.44,254.61Z" transform="translate(-57 -54.75)"/><path class="cls-4" d="M105.59,318a3.07,3.07,0,0,1-.28.42l27.54,25.3a1.45,1.45,0,0,1,.51-.21Z" transform="translate(-57 -54.75)"/><path class="cls-4" d="M135.86,345.44s0,0,0,0a2.65,2.65,0,0,1-.26.39l33.34,22.86,0,0a1.22,1.22,0,0,1,.22-.4Z" transform="translate(-57 -54.75)"/><path class="cls-4" d="M175.6,334.37l-4.94,33a1.63,1.63,0,0,1,.31.11l.18,0,5-33.16A1.1,1.1,0,0,1,175.6,334.37Z" transform="translate(-57 -54.75)"/><path class="cls-4" d="M174.81,178.31a.9.9,0,0,1,.43,0l-6-67a1,1,0,0,1-.5,0l6,67Z" transform="translate(-57 -54.75)"/><path class="cls-4" d="M196.56,260.77,175.68,181a1.1,1.1,0,0,1-.27,0c-.08,0-.21.05,0,0a.61.61,0,0,1-.18.05l20.89,79.86A1.16,1.16,0,0,1,196.56,260.77Z" transform="translate(-57 -54.75)"/><path class="cls-4" d="M195.94,264.36l-19.68,66.71a1.22,1.22,0,0,1,.45.24l19.72-66.83A1.41,1.41,0,0,1,195.94,264.36Z" transform="translate(-57 -54.75)"/><path class="cls-4" d="M248.82,121.66s0-.1.05-.15l-78.44-11.44a1.06,1.06,0,0,1-.12.48L248.81,122h0c0-.05,0-.09,0-.13A1.62,1.62,0,0,1,248.82,121.66Z" transform="translate(-57 -54.75)"/><path class="cls-4" d="M225.5,73.62,249.33,121a2.27,2.27,0,0,1,.25-.18l.19,0L226,73.43A1.54,1.54,0,0,1,225.5,73.62Z" transform="translate(-57 -54.75)"/><path class="cls-4" d="M281,79.26a1.78,1.78,0,0,1-.22.46L314.37,103,227.27,72.6l51.06,6.18a1.81,1.81,0,0,1,.14-.49L227.1,72.08a1.57,1.57,0,0,1,0,.3.3.3,0,0,1,0,.1.29.29,0,0,1,0,.1.87.87,0,0,1-.08.1.81.81,0,0,1-.1.18l-.07.08,87.58,30.54a1.26,1.26,0,0,1,.38-.9Z" transform="translate(-57 -54.75)"/><path class="cls-4" d="M176.3,179.09l0,.12,72.88-56.27a1.3,1.3,0,0,1-.31-.39L176,178.82A1,1,0,0,1,176.3,179.09Z" transform="translate(-57 -54.75)"/><path class="cls-4" d="M174.43,180.86a1.51,1.51,0,0,1-.29-.13L120,251.65a1,1,0,0,1,.4.3l54.17-71Z" transform="translate(-57 -54.75)"/><path class="cls-4" d="M119.55,254.63l55.26,76.16a1.08,1.08,0,0,1,.74.17l-55.62-76.65A1.07,1.07,0,0,1,119.55,254.63Z" transform="translate(-57 -54.75)"/><path class="cls-4" d="M105.22,162.13,168.15,111a1.71,1.71,0,0,1-.22-.25s-.07,0-.11-.08,0,0,0,0l-62.92,51.14A1.33,1.33,0,0,1,105.22,162.13Z" transform="translate(-57 -54.75)"/><path class="cls-4" d="M79.7,170.92l22-7a1.2,1.2,0,0,1-.14-.48l-22.1,7A1.12,1.12,0,0,1,79.7,170.92Z" transform="translate(-57 -54.75)"/><path class="cls-4" d="M102.62,164.86l-28.74,68.4a2.29,2.29,0,0,1,.51.06l28.68-68.23A2.38,2.38,0,0,1,102.62,164.86Z" transform="translate(-57 -54.75)"/><path class="cls-4" d="M342.4,247.84a1,1,0,0,1,.44.19l29.62-63.24-.19-.07a2.2,2.2,0,0,1-.25-.17l-29.64,63.29Z" transform="translate(-57 -54.75)"/><path class="cls-4" d="M325.28,325.43l46.14-46.14a2.55,2.55,0,0,1-.25-.46L325,325A1.06,1.06,0,0,1,325.28,325.43Z" transform="translate(-57 -54.75)"/><path class="cls-4" d="M373,275.82l0,0h.17L377,214.33,373.32,185a1.27,1.27,0,0,1-.6-.12h-.1v90.84A1.09,1.09,0,0,1,373,275.82Zm.11-88.44,3.34,27-3.34,54.9Z" transform="translate(-57 -54.75)"/><path class="cls-4" d="M172,369.67c0,.06,0,.11,0,.17l77.66,2a1.2,1.2,0,0,1,.22-.49l-77.81-2A.93.93,0,0,1,172,369.67Z" transform="translate(-57 -54.75)"/><path class="cls-4" d="M105.4,318.33,169,368.6a1.08,1.08,0,0,1,.27-.42L105.65,317.9A2.67,2.67,0,0,1,105.4,318.33Z" transform="translate(-57 -54.75)"/><path class="cls-4" d="M73.78,237.24s0,0,0,0l29.7,79a2.87,2.87,0,0,1,.47-.18L74.3,237.26A1.53,1.53,0,0,1,73.78,237.24Z" transform="translate(-57 -54.75)"/><path class="cls-4" d="M266.76,306.52l-68.83-43.58a1,1,0,0,1-.28.41h0l67.9,43L177,331.74a.9.9,0,0,1,.08.4.36.36,0,0,1,0,.1Z" transform="translate(-57 -54.75)"/><path class="cls-4" d="M195.26,262.42a1.58,1.58,0,0,1,.12-.15v0a.68.68,0,0,1,0-.14l-74.88-8.73a2.08,2.08,0,0,1-.24.47l74.92,8.74A1.47,1.47,0,0,1,195.26,262.42Z" transform="translate(-57 -54.75)"/><path class="cls-4" d="M117.6,252.61,75.44,235.87l0,.08a1.12,1.12,0,0,0-.05.13,2.56,2.56,0,0,1,0,.27l42.14,16.73A1.1,1.1,0,0,1,117.6,252.61Z" transform="translate(-57 -54.75)"/><path class="cls-4" d="M105.81,317.23a1,1,0,0,1,0,.3L173.64,332a.54.54,0,0,1,.07-.13c-.1.14.07-.12.08-.16a1.4,1.4,0,0,1,.09-.17L105.77,317A1.3,1.3,0,0,1,105.81,317.23Z" transform="translate(-57 -54.75)"/><path class="cls-4" d="M177.09,332.65c0,.11,0,.21-.05.32l73.05,38a3,3,0,0,1,.44-.34l-73.46-38.25A.93.93,0,0,1,177.09,332.65Z" transform="translate(-57 -54.75)"/><path class="cls-4" d="M268.1,306.22a2,2,0,1,1-2-1.94A1.95,1.95,0,0,1,268.1,306.22Z" transform="translate(-57 -54.75)"/><circle class="cls-4" cx="139.75" cy="207.74" r="1.95"/><circle class="cls-4" cx="118" cy="124.99" r="1.95"/><path class="cls-4" d="M252.06,121.94a2,2,0,1,1-1.95-1.94A1.95,1.95,0,0,1,252.06,121.94Z" transform="translate(-57 -54.75)"/><path class="cls-4" d="M170.8,110.09a1.95,1.95,0,1,1-2-2A2,2,0,0,1,170.8,110.09Z" transform="translate(-57 -54.75)"/><circle class="cls-4" cx="61.98" cy="198.39" r="1.95"/><path class="cls-4" d="M344.33,249.59A2.29,2.29,0,1,1,342,247.3,2.29,2.29,0,0,1,344.33,249.59Z" transform="translate(-57 -54.75)"/><path class="cls-4" d="M326,326a2.29,2.29,0,1,1-2.28-2.28A2.28,2.28,0,0,1,326,326Z" transform="translate(-57 -54.75)"/><path class="cls-4" d="M177.81,332.24a2.29,2.29,0,1,1-2.29-2.29A2.3,2.3,0,0,1,177.81,332.24Z" transform="translate(-57 -54.75)"/><circle class="cls-4" cx="46.64" cy="108.5" r="2.29"/><path class="cls-5" d="M95.32,328.23,72.8,291.16a1.54,1.54,0,0,1-.29.21L95,328.31A.66.66,0,0,1,95.32,328.23Z" transform="translate(-57 -54.75)"/><path class="cls-5" d="M96.2,329.8l16,14a1.13,1.13,0,0,1,.09-.2l.1-.1-16.1-14s0-.24,0-.21,0,0,0,.05A1.57,1.57,0,0,1,96.2,329.8Z" transform="translate(-57 -54.75)"/><circle class="cls-5" cx="38.31" cy="274.34" r="2.03"/><path class="cls-5" d="M279.63,81.51a2.62,2.62,0,0,1-.69-.11l-5.43,33.67a2.68,2.68,0,0,1,.74.13l5.43-33.7Z" transform="translate(-57 -54.75)"/><path class="cls-5" d="M78.5,173.2l27.22,24.57a2.36,2.36,0,0,1,.37-.68l-27-24.4A2.37,2.37,0,0,1,78.5,173.2Z" transform="translate(-57 -54.75)"/><path class="cls-5" d="M123.46,125.33,78.57,169.52a1.13,1.13,0,0,1,.18.12,1.79,1.79,0,0,1,.34.43l44.84-44.17A1.86,1.86,0,0,1,123.46,125.33Z" transform="translate(-57 -54.75)"/><path class="cls-5" d="M196.38,80.49a2.09,2.09,0,0,1-.2-.22l-68.55,41.65a3.86,3.86,0,0,1,.44.6L196.59,80.9A2,2,0,0,1,196.38,80.49Z" transform="translate(-57 -54.75)"/><path class="cls-5" d="M200.76,78.88a6.3,6.3,0,0,1,0,.75L277,79.09l0-.2V78.8a1.75,1.75,0,0,1,0-.46Z" transform="translate(-57 -54.75)"/><path class="cls-5" d="M200.59,80.24a1.29,1.29,0,0,1-.19.39L271,116.48a1,1,0,0,1,.07-.15,2.09,2.09,0,0,1,.36-.47L200.65,79.91A3.23,3.23,0,0,1,200.59,80.24Z" transform="translate(-57 -54.75)"/><path class="cls-5" d="M197.63,81.71l-13.07,59.16.24.12a2,2,0,0,1,.49,0l13.1-59.27A1.74,1.74,0,0,1,197.63,81.71Z" transform="translate(-57 -54.75)"/><path class="cls-5" d="M125.21,126.7a3.31,3.31,0,0,1-.33-.15l-16.7,69.7a1.94,1.94,0,0,1,.43.27,1.52,1.52,0,0,1,.22.22l16.76-70A1.8,1.8,0,0,1,125.21,126.7Z" transform="translate(-57 -54.75)"/><path class="cls-5" d="M128.34,124.37a.41.41,0,0,0-.05.09l54.2,17.93a1.17,1.17,0,0,1,.15-.32,1.28,1.28,0,0,1,.11-.2.17.17,0,0,0,0-.07,1,1,0,0,1,0-.1l-54.35-18A1.81,1.81,0,0,1,128.34,124.37Z" transform="translate(-57 -54.75)"/><path class="cls-5" d="M196,80.06a1.79,1.79,0,0,1-.2-.42l-59.94,16.3a2.9,2.9,0,0,1,.14.48,2.28,2.28,0,0,1,0,.26L196.2,80.3Z" transform="translate(-57 -54.75)"/><path class="cls-5" d="M132.69,99c-1.78,5.25-5.13,17.31-6.49,22.24a1.38,1.38,0,0,1,.75.11c2.16-7.85,5-17.86,6.48-22.21A1.48,1.48,0,0,1,132.69,99Z" transform="translate(-57 -54.75)"/><path class="cls-5" d="M128.55,284.71a2.16,2.16,0,0,1-.39.65l71.32,40.07a1.16,1.16,0,0,1,.17-.42,2.15,2.15,0,0,1,.18-.24Z" transform="translate(-57 -54.75)"/><path class="cls-5" d="M184.7,239.72l15.8,84.56.07,0,.3,0a1.48,1.48,0,0,1,.35-.13l-15.8-84.59A2.42,2.42,0,0,1,184.7,239.72Z" transform="translate(-57 -54.75)"/><path class="cls-5" d="M283.07,339.56a3,3,0,0,1,0,.79l32.15,10.52a1.57,1.57,0,0,1,0-.23,1.4,1.4,0,0,1,0-.54Z" transform="translate(-57 -54.75)"/><path class="cls-5" d="M124.57,282.94,79.71,267.4a2.23,2.23,0,0,1-.3.69l44.8,15.51A1.58,1.58,0,0,1,124.57,282.94Z" transform="translate(-57 -54.75)"/><path class="cls-5" d="M79.05,268.51a2,2,0,0,1-.56.51l55.16,74.37a2.41,2.41,0,0,1,.63-.4Z" transform="translate(-57 -54.75)"/><path class="cls-5" d="M108.06,201.84l17.65,80.22a1.37,1.37,0,0,1,.49-.22l.23,0-17.62-80.05A2.7,2.7,0,0,1,108.06,201.84Z" transform="translate(-57 -54.75)"/><path class="cls-5" d="M110.31,200a1.93,1.93,0,0,1-.08.48,2.06,2.06,0,0,1-.12.26l72.16,35.44a2.23,2.23,0,0,1,.45-.62Z" transform="translate(-57 -54.75)"/><path class="cls-5" d="M137.53,345.93a2.11,2.11,0,0,1-.2.43l-.18.23,86.76,30.85a1.4,1.4,0,0,1,.43-.64Z" transform="translate(-57 -54.75)"/><path class="cls-5" d="M201.85,328.19l23.32,48.06,0,0a1.28,1.28,0,0,1,.71-.16L202.5,327.81A2.22,2.22,0,0,1,201.85,328.19Z" transform="translate(-57 -54.75)"/><path class="cls-5" d="M203.51,326a1.32,1.32,0,0,1-.1.51c0,.08-.07.15-.1.22L279,339.36c0-.07,0-.15,0-.22a1.37,1.37,0,0,1,.23-.45v0Z" transform="translate(-57 -54.75)"/><path class="cls-5" d="M77.37,173.62a1.11,1.11,0,0,1-.27.12v90.64a1.11,1.11,0,0,1,.6.17.88.88,0,0,1,.15.12V173.53A1.94,1.94,0,0,1,77.37,173.62Z" transform="translate(-57 -54.75)"/><path class="cls-5" d="M109.58,198.13a1.83,1.83,0,0,1,.13.16l73.36-54.06a5.5,5.5,0,0,1-.28-.48,1,1,0,0,1-.11-.17l-73.28,54A3.42,3.42,0,0,1,109.58,198.13Z" transform="translate(-57 -54.75)"/><path class="cls-5" d="M106.62,201.47l-.15-.09-28.4,63.4a1.27,1.27,0,0,1,.69.3l28.39-63.39A3.49,3.49,0,0,1,106.62,201.47Z" transform="translate(-57 -54.75)"/><path class="cls-5" d="M347.05,283.38a1.48,1.48,0,0,1,.39.35l29.06-69.58a1.29,1.29,0,0,1-.76-.14L346.81,283.3A1.69,1.69,0,0,1,347.05,283.38Z" transform="translate(-57 -54.75)"/><path class="cls-5" d="M282.67,338.6l62.08-51.44a1.91,1.91,0,0,1-.51-.55l-62.1,51.46A2.42,2.42,0,0,1,282.67,338.6Z" transform="translate(-57 -54.75)"/><path class="cls-5" d="M228.45,376.94l50.83-35.8s0-.05-.06-.08a1.9,1.9,0,0,1-.22-.63l-51.07,35.95A1.39,1.39,0,0,1,228.45,376.94Z" transform="translate(-57 -54.75)"/><path class="cls-5" d="M126.83,286.19a1.64,1.64,0,0,1-.37.05c2.65,19.1,6.63,47.13,8.39,56.56a2.34,2.34,0,0,1,.7-.05C134,334,130,306.34,127.19,286.06A2.2,2.2,0,0,1,126.83,286.19Z" transform="translate(-57 -54.75)"/><path class="cls-5" d="M128.1,282.46a3,3,0,0,1,.33.49l54.12-44a1.29,1.29,0,0,1-.22-.35s0-.08,0-.12a1.15,1.15,0,0,1-.14-.17l-54.17,44A.68.68,0,0,1,128.1,282.46Z" transform="translate(-57 -54.75)"/><path class="cls-5" d="M199.39,326.11l-61.75,18.68a2.33,2.33,0,0,1,0,.79l61.73-18.67a1.61,1.61,0,0,1,0-.39C199.33,326.37,199.37,326.25,199.39,326.11Z" transform="translate(-57 -54.75)"/><path class="cls-5" d="M318.18,349.51l27.6-61.94h0l-.16,0a2.14,2.14,0,0,1-.54-.18l-27.53,61.76A1.57,1.57,0,0,1,318.18,349.51Z" transform="translate(-57 -54.75)"/><path class="cls-5" d="M370.94,277.67l-23.24,6.88a2,2,0,0,1-.08.54l.12.23,23.11-6.84a5.4,5.4,0,0,1,.09-.58A.88.88,0,0,1,370.94,277.67Z" transform="translate(-57 -54.75)"/><path class="cls-5" d="M223.72,72.81a1.4,1.4,0,0,1-.31-.69L200.68,78.3a1.34,1.34,0,0,1,.09.45c0,.1,0,.21,0,.31Z" transform="translate(-57 -54.75)"/><path class="cls-5" d="M227.26,72a1.23,1.23,0,0,1-.25.72l50,6.06a2.39,2.39,0,0,1,.1-.71Z" transform="translate(-57 -54.75)"/><path class="cls-5" d="M315.28,102.84l-33.14-23a2.66,2.66,0,0,1-.42.63l33,22.82A1.19,1.19,0,0,1,315.28,102.84Z" transform="translate(-57 -54.75)"/><path class="cls-5" d="M376.66,210.35a.6.6,0,0,1,.13.09l-3.38-25.86a1.44,1.44,0,0,1-.71.35L376,210.19A1.94,1.94,0,0,1,376.66,210.35Z" transform="translate(-57 -54.75)"/><path class="cls-5" d="M318.45,349.87l53-69.89a1.44,1.44,0,0,1-.51-.56l-53,69.9A1.45,1.45,0,0,1,318.45,349.87Z" transform="translate(-57 -54.75)"/><path class="cls-5" d="M252.79,370l.05.05a1.55,1.55,0,0,1,.26.37l62.38-18.47-.18-.41c0-.11,0-.21-.05-.31l-62.71,18.57A1.57,1.57,0,0,1,252.79,370Z" transform="translate(-57 -54.75)"/><path class="cls-5" d="M250.55,370.38l-22.11,6.55a1.35,1.35,0,0,1,.15.74l21.71-6.43A1.49,1.49,0,0,1,250.55,370.38Z" transform="translate(-57 -54.75)"/><path class="cls-5" d="M169.09,368.5a1,1,0,0,1,.18-.31l-31.92-21.88,0,.05a2.54,2.54,0,0,1-.29.36,2.12,2.12,0,0,1-.12.2l31.87,21.85A1.29,1.29,0,0,1,169.09,368.5Z" transform="translate(-57 -54.75)"/><path class="cls-5" d="M224,377.19l-52.16-7.82a1.4,1.4,0,0,1-.06.28.47.47,0,0,1-.05.1,1,1,0,0,1,0,.35l52.13,7.82s0-.06,0-.09A1.43,1.43,0,0,1,224,377.19Z" transform="translate(-57 -54.75)"/><path class="cls-5" d="M73.5,237.14l-.34,0,3.59,27.28a1.34,1.34,0,0,1,.77.09L73.9,237.09A.9.9,0,0,1,73.5,237.14Z" transform="translate(-57 -54.75)"/><path class="cls-5" d="M77.37,173.62a1,1,0,0,1-.42.14L73,233.54a1.43,1.43,0,0,1,.74,0l3.94-60A2.14,2.14,0,0,1,77.37,173.62Z" transform="translate(-57 -54.75)"/><path class="cls-5" d="M132.57,99a1.37,1.37,0,0,1-.41-.38L78.51,169.48a2,2,0,0,1,.24.16,1.86,1.86,0,0,1,.3.38l53.71-71Z" transform="translate(-57 -54.75)"/><path class="cls-5" d="M78.18,269.15l25,47.05a1.46,1.46,0,0,1,.64-.39l-25-47.05A1.71,1.71,0,0,1,78.18,269.15Z" transform="translate(-57 -54.75)"/><path class="cls-5" d="M105.35,318.58v0l27.9,25.27a2.39,2.39,0,0,1,.5-.55L105.65,317.9A1.14,1.14,0,0,1,105.35,318.58Z" transform="translate(-57 -54.75)"/><path class="cls-5" d="M373,276.28l0,0h0a.6.6,0,0,0,.15.09l.16.08L377,214a1.43,1.43,0,0,1-.76.16l-3.66,61.93A1.32,1.32,0,0,1,373,276.28Z" transform="translate(-57 -54.75)"/><path class="cls-5" d="M81.12,267a3.64,3.64,0,1,1-3.64-3.64A3.64,3.64,0,0,1,81.12,267Z" transform="translate(-57 -54.75)"/><circle class="cls-5" cx="20.48" cy="116.72" r="3.64"/><path class="cls-5" d="M137.62,96.84A3.64,3.64,0,1,1,134,93.19,3.64,3.64,0,0,1,137.62,96.84Z" transform="translate(-57 -54.75)"/><path class="cls-5" d="M202.19,79.27a3.64,3.64,0,1,1-3.64-3.64A3.64,3.64,0,0,1,202.19,79.27Z" transform="translate(-57 -54.75)"/><path class="cls-5" d="M283.39,79.27a3.64,3.64,0,1,1-3.64-3.64A3.64,3.64,0,0,1,283.39,79.27Z" transform="translate(-57 -54.75)"/><path class="cls-5" d="M380.35,211.22a3.64,3.64,0,1,1-3.64-3.64A3.64,3.64,0,0,1,380.35,211.22Z" transform="translate(-57 -54.75)"/><path class="cls-5" d="M376.51,277.49a3.64,3.64,0,1,1-3.64-3.64A3.64,3.64,0,0,1,376.51,277.49Z" transform="translate(-57 -54.75)"/><path class="cls-5" d="M320.71,351.07a3.64,3.64,0,1,1-3.64-3.64A3.64,3.64,0,0,1,320.71,351.07Z" transform="translate(-57 -54.75)"/><circle class="cls-5" cx="169.38" cy="323.18" r="3.64"/><path class="cls-5" d="M138.68,345.21a3.64,3.64,0,1,1-3.64-3.64A3.64,3.64,0,0,1,138.68,345.21Z" transform="translate(-57 -54.75)"/><circle class="cls-5" cx="168" cy="17.33" r="2.64"/><path class="cls-5" d="M318.24,103.81a2.22,2.22,0,1,1-2.22-2.22A2.21,2.21,0,0,1,318.24,103.81Z" transform="translate(-57 -54.75)"/><path class="cls-5" d="M375.51,183a2.64,2.64,0,1,1-2.64-2.64A2.64,2.64,0,0,1,375.51,183Z" transform="translate(-57 -54.75)"/><path class="cls-5" d="M254.49,371.65a2.64,2.64,0,1,1-2.64-2.64A2.64,2.64,0,0,1,254.49,371.65Z" transform="translate(-57 -54.75)"/><path class="cls-5" d="M173.23,369a2.64,2.64,0,1,1-2.63-2.64A2.64,2.64,0,0,1,173.23,369Z" transform="translate(-57 -54.75)"/><path class="cls-5" d="M106.28,318a2.64,2.64,0,1,1-2.64-2.64A2.64,2.64,0,0,1,106.28,318Z" transform="translate(-57 -54.75)"/><path class="cls-5" d="M76.48,235.29a2.64,2.64,0,1,1-2.64-2.64A2.64,2.64,0,0,1,76.48,235.29Z" transform="translate(-57 -54.75)"/><path class="cls-5" d="M129.68,124.18a3.64,3.64,0,1,1-3.64-3.64A3.64,3.64,0,0,1,129.68,124.18Z" transform="translate(-57 -54.75)"/><path class="cls-5" d="M112.28,199.19a4.32,4.32,0,1,1-4.32-4.32A4.32,4.32,0,0,1,112.28,199.19Z" transform="translate(-57 -54.75)"/><path class="cls-5" d="M130.85,283.69a4.33,4.33,0,1,1-4.33-4.32A4.33,4.33,0,0,1,130.85,283.69Z" transform="translate(-57 -54.75)"/><path class="cls-5" d="M205.18,326a4.33,4.33,0,1,1-4.32-4.32A4.32,4.32,0,0,1,205.18,326Z" transform="translate(-57 -54.75)"/><path class="cls-5" d="M285.51,339.34a4.32,4.32,0,1,1-4.32-4.32A4.31,4.31,0,0,1,285.51,339.34Z" transform="translate(-57 -54.75)"/><path class="cls-5" d="M350.69,285.45a4.33,4.33,0,1,1-4.33-4.32A4.32,4.32,0,0,1,350.69,285.45Z" transform="translate(-57 -54.75)"/><path class="cls-5" d="M278.19,117.34a4.33,4.33,0,1,1-4.33-4.32A4.32,4.32,0,0,1,278.19,117.34Z" transform="translate(-57 -54.75)"/><path class="cls-5" d="M188.87,143.27a4.33,4.33,0,1,1-4.32-4.32A4.32,4.32,0,0,1,188.87,143.27Z" transform="translate(-57 -54.75)"/><path class="cls-5" d="M188.87,236.86a4.33,4.33,0,1,1-4.32-4.33A4.33,4.33,0,0,1,188.87,236.86Z" transform="translate(-57 -54.75)"/><path class="cls-5" d="M286,60.65a2.11,2.11,0,0,1,0-.25v-.17l-42.95-5.48a.78.78,0,0,1-.08.4Z" transform="translate(-57 -54.75)"/><path class="cls-5" d="M288.56,61.66l28.85,22.18a1.23,1.23,0,0,1,.23-.33L288.82,61.35A1.53,1.53,0,0,1,288.56,61.66Z" transform="translate(-57 -54.75)"/><path class="cls-5" d="M286.57,63.11A2.63,2.63,0,1,1,290,61.65,2.63,2.63,0,0,1,286.57,63.11Z" transform="translate(-57 -54.75)"/><path class="cls-5" d="M61.65,165.46a1.21,1.21,0,0,0-.24-.21l-.17-.14,29.29-48.34A1.15,1.15,0,0,0,91,117Z" transform="translate(-57 -54.75)"/><path class="cls-5" d="M60.62,168.88l-.77,47.5a1.9,1.9,0,0,0-.53,0l.77-47.44A1.9,1.9,0,0,0,60.62,168.88Z" transform="translate(-57 -54.75)"/><path class="cls-5" d="M63.71,168a3.43,3.43,0,1,0-4.26,2.3A3.42,3.42,0,0,0,63.71,168Z" transform="translate(-57 -54.75)"/><path class="cls-5" d="M276.27,387.09a1.27,1.27,0,0,1,.36.37L331,365.54a.69.69,0,0,1-.08-.48Z" transform="translate(-57 -54.75)"/><path class="cls-5" d="M332.33,364.4a1,1,0,0,1,.47.19l28.64-33.08a1.42,1.42,0,0,1-.28-.41Z" transform="translate(-57 -54.75)"/><path class="cls-5" d="M333.19,363a2.75,2.75,0,1,1-3.72,1.12A2.75,2.75,0,0,1,333.19,363Z" transform="translate(-57 -54.75)"/></g><text class="cls-6" transform="translate(171.71 162.42)"><tspan class="cls-7">d</tspan><tspan class="cls-8" x="16.05" y="0">v</tspan><tspan x="31.44" y="0">clab</tspan></text></svg>