<svg xmlns="http://www.w3.org/2000/svg" viewBox="0 0 56.7 56.7"><path d="M44.6 36.6c-.9-.9-1.9-1.7-2.8-2.3-1.1-.8-2.2-1.5-3.2-2-1.6-.8-2.3-.9-2.6-.9-.8 0-1.4.4-2 1.2-.3.5-.6 1.1-.9 1.7-.2.6-.4 1-.6 1.2-.2-.2-1-.5-2.5-1.5-1.3-.9-2.8-2.1-3.9-3.2-1-1.1-2.2-2.6-3.2-4-1.1-1.7-1.3-2.4-1.4-2.6l1.2-.6c.6-.3 1.2-.5 1.7-.9.8-.5 1.2-1.2 1.2-2 0-.4-.1-1.1-.9-2.7l-1.9-3.2-2.3-2.9c-1-1.1-1.8-1.5-2.5-1.5-1.7 0-3.6 2.4-4.4 3.4-.7 1-2.5 3.6-2.5 6.1 0 1.8.9 4.3 2.8 7.4 1.7 2.8 4 5.8 6.6 8.5l.8.9c2.6 2.6 5.5 4.9 8.3 6.7 2.1 1.3 5 2.8 7.3 2.8.9 0 2-.3 3-.7l.2-.1c.3-.2.5-.6.5-.9 0-.6-.5-1.2-1.1-1.2-.2 0-.3 0-.5.1-.7.3-1.5.5-2 .5-1.3 0-3.6-.9-6.1-2.5-2.6-1.6-5.4-3.9-7.9-6.4l-1-.9c-2.5-2.6-4.7-5.5-6.3-8.1-1.5-2.6-2.4-4.8-2.4-6.2 0-1.2.7-2.9 2-4.6.6-.8 1.2-1.5 1.7-1.9.3-.3.6-.5.9-.6.3.2 1.4 1.1 3.1 3.7.6 1 1.2 1.9 1.7 2.8s.6 1.4.6 1.6c0 0-.1.1-.4.3-.2.1-.5.3-.8.4-.1.1-.2.1-.3.2l-.2.1c-.5.2-.9.4-1.3.7-.7.5-1.1 1.1-1.1 1.8 0 .3 0 1.3 1.8 4 1 1.5 2.3 3.1 3.4 4.3 1.2 1.2 2.8 2.5 4.2 3.5 2.7 1.9 3.6 1.9 4 1.9.7 0 1.3-.4 1.8-1.1.3-.4.5-1 .7-1.5.1-.1.1-.2.2-.4.1-.3.3-.6.4-.8s.2-.3.3-.4c.1 0 .6.1 1.5.7a16.9 16.9 0 0 1 2.7 1.7c2.4 1.7 3.4 2.8 3.6 3.2-.1.3-.4.7-.6.9s-.4.5-.6.7-.3.5-.3.8c0 .6.5 1.2 1.1 1.2.3 0 .6-.1.8-.3 1.3-1.3 1.9-2.4 1.9-3.3 0-1-.5-1.8-1.5-2.8z" fill="#677589"/></svg>