<svg xmlns="http://www.w3.org/2000/svg" viewBox="0 0 56.7 56.7"><path d="M41.3 14.3H20.2c-.6 0-1.2.5-1.2 1.2s.5 1.2 1.2 1.2h21.1c2.1 0 3.8 1.8 3.8 3.9V37c0 2.2-1.7 3.9-3.8 3.9H16.1c-2.1 0-3.8-1.8-3.8-3.9V21.3c0-.7.5-.9.7-1s.7-.2 1.1.2l10.3 10.6c1.2 1.2 2.7 1.8 4.4 1.8s3.2-.7 4.4-1.8l8.4-8.6c.5-.5.4-1.2 0-1.7-.5-.5-1.2-.4-1.7 0l-8.4 8.6c-.7.7-1.7 1.1-2.7 1.1s-2-.4-2.7-1.1L15.7 18.9c-1-1-2.4-1.3-3.6-.8-1.3.5-2.1 1.8-2.1 3.2v15.6c0 3.5 2.8 6.3 6.2 6.3h25.2c1.6 0 3.1-.6 4.3-1.8s1.8-2.8 1.8-4.5V20.6c0-3.5-2.8-6.3-6.2-6.3z" fill="#69778c"/></svg>