<svg xmlns="http://www.w3.org/2000/svg" viewBox="0 0 56.7 56.7" fill="#69778c"><path d="M27.4 47c-.3 0-.6-.1-.9-.4a1.24 1.24 0 0 1 .1-1.7s3.5-3.2 7-7.3c2-2.4 3.6-4.6 4.7-6.5 1.4-2.4 2.1-4.3 2.1-5.9 0-7.1-5.7-12.9-12.7-12.9S15 18.1 15 25.2c0 3.5 3.2 9 9.1 15.6a1.24 1.24 0 0 1-.1 1.7c-.5.4-1.2.4-1.6-.1-2.6-2.9-4.7-5.6-6.3-8.1-1-1.6-1.8-3.1-2.4-4.5-.7-1.6-1-3.1-1-4.5 0-2.1.4-4.1 1.2-6 .8-1.8 1.8-3.5 3.2-4.9a15.82 15.82 0 0 1 4.8-3.3c1.8-.8 3.8-1.2 5.8-1.2s4 .4 5.8 1.2a15.82 15.82 0 0 1 4.8 3.3c1.4 1.4 2.5 3 3.2 4.9.8 1.9 1.2 3.9 1.2 6 0 3.5-2.5 8.2-7.4 14-3.6 4.2-7.1 7.4-7.2 7.5-.2.1-.5.2-.7.2zm.3-25.6c1.9 0 3.4 1.6 3.4 3.5s-1.5 3.5-3.4 3.5-3.4-1.6-3.4-3.5 1.5-3.5 3.4-3.5m0-2.3c-3.1 0-5.7 2.6-5.7 5.8s2.5 5.8 5.7 5.8c3.1 0 5.7-2.6 5.7-5.8s-2.5-5.8-5.7-5.8zm0 0"/></svg>