<svg xmlns="http://www.w3.org/2000/svg" viewBox="0 0 240.9 240.9"><path d="M227.8 91.2h-5.5c-.7 0-1 .2-1 1v4.4c0 .8-.2 1.2-1.1 1.1h-4.4c-.7 0-1 .2-1 1v11c0 .7.2 1 1 1h4.4c.8 0 1.2-.2 1.1-1.1v-4.4c0-.7.2-1 1-1h4.6c.6 0 .9.2.9.9v12.1h-12.9l-.1-5.2c0-.9-.1-1.3-1.2-1.2-1.4.1-2.8 0-4.3 0-.8 0-1.1.2-1.1 1v5.5h-6.6v-5.6c0-.7-.3-.9-1-.9H196c-.7 0-1 .2-.9.9v4.6c0 .7.2 1 .9 1h5.6v6.6H196c-.7 0-.9.3-.9 1v4.6c0 .7.2 1 .9.9h4.6c.7 0 1-.2 1-.9v-5.6h5.5c.9 0 1.1-.3 1.1-1.1v-5.5h6.6c0 .1-.1.3-.1.4v11.9c0 .6.3.8.9.8h2.9l9.1.1v10.9c0 2.2-.2 2 2 2h3.4c.9 0 1.2-.3 1.2-1.2v-4.3c0-.7.2-1.1 1-1h4.6c.7 0 .9.3.9 1v17.6c0 .8-.3 1-1 1h-12.1v-5.6c0-.7-.2-1-1-1h-4.3c-.9 0-1.3-.2-1.2-1.2V138c0-.8-.2-1.1-1-1.1h-10.9c-.8 0-1.1.3-1 1.1v3.8c0 1.6 0 1.6-1.5 1.6h-3.9c-.7 0-1.1.2-1 1v4.6c0 .7.2 1 .9.9h4.5c.8 0 1.1.2 1.1 1.1v5.6c-1.9 0-3.9-.1-5.9 0-.2 0-.6.6-.7.9-.1 1.5 0 3 0 4.6 0 .7.2 1 .9.9h4.6c.7 0 1-.2 1-1v-5.5l5.7-.1c.6 0 .8.3.8.9v4.7c0 .7-.3.9-1 .9h-4.5c-.7 0-1 .2-1 1v5.5h-5.9c-.2 0-.6-.5-.6-.8V164c0-.7-.2-1-1-1h-4.5c-.8 0-1.1.3-1 1.1v4.4c0 .7-.2 1-1 1h-4.5c-.7 0-1-.2-1-1V164c0-.7-.3-1-1-1h-4.3c-1 0-1.2-.3-1.2-1.2v-10.7c0-.8-.2-1.1-1-1.1h-4.3c-1 0-1.2.3-1.2 1.3v10.3c0 1.5 0 1.5-1.5 1.5h-23.3c-.9 0-1.3.2-1.3 1.2v5.3h-5.5c-.8 0-1.1.2-1.1 1v4c0 1.4 0 1.4-1.5 1.4H125c-.9 0-1.3.2-1.2 1.2v5.4h-6.6v-13.1h18.6c.8 0 1-.3 1-1V164c0-.8.2-1 1-1h4.3c.9 0 1.3-.2 1.3-1.2v-8.2c0-.3.3-.9.5-.9 1.8-.1 3.3-1 4.7-1.9l1-.7v6.4h5.5c.9 0 1.2-.3 1.2-1.2v-9.1c0-2.8 0-2.8-2.8-2.8-.8 0-1-.3-1-1.1v-9.4c0-2.7-.4-2.4 2.5-2.5 1.1 0 1.3.3 1.3 1.4v10.5c0 .8.1 1.2 1.1 1.2h4.5c.7 0 1-.2.9-.9v-4.4c0-.9.2-1.2 1.2-1.2h4.4c.7 0 1-.2 1-.9v-11.2c0-.7-.3-.9-1-.9h-4.6c-.7 0-1-.2-.9-1v-4.3c0-1 .3-1.3 1.3-1.3h13.3l5-.1v6.6c-1.7 0-3.5 0-5.3-.1-1 0-1.4.2-1.4 1.3v9.6c0 2.4.2 2.1-2.1 2.1h-3.4c-.7 0-1 .2-1 1v5.5H163c-.1.3-.1.4-.2.5v11.8c0 .6.3.8.9.8h4.6c.7 0 1-.2 1-1V150l-.1-6.7c.5 0 1.1.1 1.6.1h16.8c.9 0 1.2.3 1.2 1.2v10.7c0 .8.2 1.2 1.1 1.1h4.4c.7 0 1-.2 1-1v-17.5c0-.8-.3-1-1.1-1h-4.4c-.7 0-1-.2-1-1v-4.5c0-.7-.2-1-1-1h-4.6c-.6 0-.9-.2-.9-.9v-5.6h5.5c.7 0 1-.3 1-1v-4.5c0-.8-.3-1-1.1-1h-5.4v-6.5l5.7.1c.6 0 .8-.3.8-.9V105c0-.6-.2-.9-.9-.9h-4.8c-.6 0-.8.3-.8.9v5.6h-25.2c-.7 0-.9-.3-.9-.9v-3.8c0-1.7 0-1.7 1.7-1.7h10.3c.8 0 1.1-.3 1.1-1.1v-4.5c0-.7-.2-1-.9-1H164c-.9 0-1.2-.2-1.2-1.2V79.2c0-.5 0-1.1-.8-1.1l-5.7.1-.1-5.8c0-.7.3-.8 1-.8h4.6c.7 0 1-.2.9-.9v-4.4c0-1-.3-1.2-1.2-1.2h-10.6c-.8 0-1.2-.1-1.2-1.1V53c0-.7.2-1 1-1h4.5c.8 0 1 .3 1 1.1v4.5c0 .6.2.9.9.9h4.8c.6 0 .8-.2.8-.8V53c0-.7.2-1 .9-1h11.2c.7 0 1 .2.9.9v4.3c0 1-.3 1.3-1.3 1.3h-10.5c-.9 0-1.3.2-1.2 1.2.1 1.3.1 2.7 0 4 0 1 .3 1.3 1.3 1.3h24.9l-.1 5.5c0 .8-.2 1.2-1.1 1.1h-4c-1 0-1.4.2-1.4 1.3.1 1.4 0 2.8 0 4.2 0 .8-.3 1.1-1.1 1h-4.4c-.8 0-1.1.3-1.1 1.1v5.4l-5.5.1c-.6 0-1 .1-1 .9v4.8c0 .6.2.8.8.8h4.8c.6 0 .8-.2.8-.8v-5.8c.4 0 .9.1 1.4.1h14.5l3.6-.1v6.5h-5.5c-.7 0-1 .2-1 .9v4.7c0 .6.2.9.8.9h4.9c.2 0 .7-.4.7-.6v-5.9h6.6V103c0 .8.2 1.2 1.1 1.1h4.4c.8 0 1.1-.3 1-1.1v-4.5c0-.7.2-1 .9-1h4.7c.5 0 .9-.1.9-.8V85.2c0-.7-.3-.9-.9-.9h-4.6c-.7 0-1 .2-1 1v4.4c0 .8-.2 1.2-1.1 1.1h-5.5v-5.4c0-.9-.2-1.2-1.2-1.2h-5.5c0-.3.1-.6.1-.8V65.8c0-.3 0-.6-.1-1h5.6c.7 0 1.1-.2 1-1v-4.6c0-.7-.2-1-1-.9h-4.5c-.8 0-1.1.2-1.1 1.1v5.5h-6.3l-.1-5.3c0-.9-.3-1.2-1.2-1.2h-3.9c-1.1.1-1.4-.3-1.4-1.4V40.1c0-.9-.2-1.2-1.2-1.2h-5.4v-6.6h5.7c.6 0 .9-.3.9-.9v-4.7c0-.6-.2-.9-.9-.9h-4.7c-.7 0-.9.2-.9.9v5.6h-5.5c-.8 0-1.1-.2-1.1-1v-5.6h5.8c.6 0 .8-.3.8-.8v-4.8c0-.6-.2-.9-.8-.8l-5.8.1v-5.7c0-.6.2-.9.8-.9l5.7.1v5.4c0 .8.2 1.1 1.1 1.1H187c1.1 0 1.3.3 1.3 1.4v29.6c0 1.5 0 1.5 1.6 1.5H207c.9 0 1.3.3 1.2 1.2v10.6c0 .9.2 1.2 1.2 1.2H220c.9 0 1.2-.3 1.1-1.2V53.1c0-1 .3-1.2 1.2-1.2h17.1c.9 0 1.3.2 1.2 1.2v3.8c0 1.5 0 1.5-1.4 1.5H229c-1.1 0-1.3.3-1.3 1.4v10.4c0 1-.3 1.3-1.3 1.3h-23.3c-1.4 0-1.4 0-1.5 1.4v3.6c0 1.4 0 1.5 1.4 1.5h23.2c1.4 0 1.4 0 1.4 1.4.3 4.1.2 7.9.2 11.8zm-61.8-13h2.4c.6 0 .9-.2.9-.9v-4.7c0-.6-.2-.9-.9-.9h-4.7c-.6 0-.9.2-.9.9v4.7c0 .7.3.9 1 .9.7-.1 1.4 0 2.2 0zm-107.4 117l-5.7.1c-.6 0-.8-.3-.8-.9V190c0-.9-.3-1.3-1.2-1.3H40.3c-.9 0-1.2-.2-1.2-1.2v-4.2c0-1 .3-1.2 1.3-1.2h10.4c1.1 0 1.4-.3 1.4-1.4v-10.5c0-.8-.2-1.1-1.1-1.1h-5.4v-5.4c0-.8-.3-1.1-1.1-1.1h-4.4c-.7 0-1 .2-1 1v5.5h-6.6v-5.5c0-.7-.2-1-1-1h-4.4c-.8 0-1.1.2-1.1 1.1l-.1 5.4h-6.3l-.1-5.4c0-.8-.3-1.1-1.1-1.1h-4.4c-.7 0-1 .2-1 1v5.5H7.7c-1 0-1.2.3-1.2 1.2v17c0 1-.3 1.4-1.3 1.4-1.4-.1-2.8 0-4.2 0-.7 0-1-.2-1-1v-24.1c0-.9.4-1 1.1-1h10.6c1.1 0 1.3-.3 1.3-1.3V143h5.3c.9 0 1.3.2 1.3 1.2v4.4c0 .6.2.9.9.9h11.3c.6 0 .9-.3.9-.9v-4.4c0-1 .3-1.2 1.2-1.2h10.7c.8 0 1.1-.2 1.1-1v-3.8c0-1.6 0-1.6-1.6-1.6H33.9c-1 0-1.3-.3-1.3-1.3v-3.8c.1-1.1-.3-1.4-1.4-1.4-1.6.1-3.3 0-4.9 0h-12c-.6 0-1.2 0-1.2.8V143H7.7c-1 0-1.2-.3-1.2-1.3v-16.8c0-1.4 0-1.4-1.4-1.4h-4c-.7 0-1-.2-1-1V118c0-.8.3-1 1.1-1h12v5.8c0 .6.3.8.9.8h4.7c.7 0 .9-.3.9-1V118c0-.8-.3-1-1-1h-5.5v-12.9l5.1-.1c1.1 0 1.4.3 1.4 1.4V116c0 .8.2 1.1 1.1 1.1h5.3l.1 5.3c0 1 .3 1.3 1.3 1.3h11.8v5.5c0 .8.3 1.1 1.1 1h4.5c.7 0 1-.2.9-.9v-4.6c0-.7-.2-1-.9-1h-5.6v-5c0-1.5 0-1.5 1.5-1.5H51c1.1 0 1.4.3 1.4 1.4v16.7c0 1.4 0 1.4 1.5 1.4h3.7c1.1 0 1.3-.3 1.3-1.4v-10.6c0-.7.2-1.1 1-1H72v5.5c0 .8.3 1.1 1.1 1.1l5.3.1.1 5.1c0 1.1.3 1.4 1.4 1.3h7.9c.8 0 1.1.3 1.1 1.1l.1 6.2c.1 1.1.6 2.2 1.1 3.2.7 1.4 1.8 2.7 1.5 4.6-.2 1.2-.1 2.4 0 3.6 0 .3.4.8.6.8h6v-3c0-.6.2-.8.8-.8h11c.6 0 .8.3.8.9v3h5.6c.7 0 1.1.2 1 1v12h-5.5c-.8 0-1.1.3-1 1.1v4.4c0 .8-.2 1.1-1.1 1.1h-5.4l-.1-5.2c0-1.1-.3-1.3-1.4-1.3h-5.1V164c0-.7-.2-1-1-1h-4.6c-.6 0-.9.2-.9.9v4.8c0 .3.4.8.7.8h5.9l-.1 5.9c0 .7.4.7.9.7h5.7l-.1 5.1c0 1.4 0 1.4 1.4 1.4h11.6v5.5c0 .7-.2 1-1 1h-4.2c-1 0-1.4.2-1.4 1.3v5.1h-6.3c0-.4-.1-.8-.1-1.2V190c0-.6-.1-1-.8-.9h-4.9c-.2 0-.7.4-.7.7v5c0 .2.3.7.6.7l6.1-.1c0 .5-.1 1.1-.2 1.6v16.7c0 1-.2 1.4-1.3 1.4-1.3-.1-2.7 0-4 0-.9 0-1.2-.3-1.2-1.2v-10.6c0-.9-.3-1.2-1.2-1.2H86.1c-.9 0-1.2-.2-1.2-1.2v-4.3c0-.9.3-1.1 1.1-1.1h4.4c.8 0 1-.3 1-1v-4.3c0-1-.3-1.2-1.2-1.2H73.1c-1.4 0-1.4 0-1.4-1.4V183c0-.6-.2-.9-.9-.9h-4.7c-.7 0-.9.3-.9 1v4.3c0 1-.3 1.3-1.3 1.3h-4.2c-.8 0-1.1.3-1.1 1.1.1 1.9 0 3.6 0 5.4zm13.1-26l12.1.1c.7 0 .8-.3.8-1v-11c0-.7-.3-1-1-1h-4.5c-.7 0-1 .2-1 1v4.4c0 .8-.2 1.2-1.1 1.1h-4.5c-.6 0-.9.2-.9.9l.1 5.5h-5.5c-.7 0-1 .2-1 1v4.6c0 .7.2 1 .9.9h4.5c.9 0 1.1-.3 1.1-1.1v-5.4zm-32.5-12.9l11.7-.1c1 0 1.3.3 1.3 1.3v10.7c0 .7.2 1 1 1h4.4c.9 0 1.2-.3 1.2-1.2v-10.4c0-1.4 0-1.4 1.5-1.4H77c.9 0 1.3-.2 1.2-1.2-.1-1.4 0-2.9 0-4.4 0-.7.2-1 .9-.9h4.5c.8 0 1.1-.2 1.1-1v-4.2c0-1-.2-1.3-1.3-1.3H72.8c-.8 0-1.2-.2-1.1-1.1v-4.2c0-.9-.2-1.3-1.2-1.3h-4.2c-.9 0-1.2.3-1.2 1.2v10.6c0 .9-.3 1.2-1.2 1.2H40.2c-.6 0-1.1 0-1.1.8l.1 5.9h-5.9c-.2 0-.6.6-.7.9v4.6c0 .7.2 1 .9.9h4.6c.7 0 1-.2 1-1l.1-5.4zm61.8 0h-2.4c-.6 0-.9.2-.9.9v4.7c0 .6.2.9.8.9h4.8c.6 0 .8-.2.8-.8v-4.8c0-.7-.3-.9-.9-.8l-2.2-.1zm-16.3 22.8v-2.5c0-.6-.2-.8-.8-.8h-4.8c-.6 0-.9.2-.8.8v4.8c0 .7.3.9.9.9h2.4c3.1 0 3.1 0 3.1-3.2z"/><path d="M52.1 58.6l.1-1.4V34c0-1.4 0-1.4 1.4-1.4h11.6v6.6h-5.5c-.8 0-1.1.2-1.1 1V51c0 .8.3 1.1 1.1 1.1h10.8c.8 0 1.2-.2 1.1-1.1v-5.4H78l.1 5.5c0 .5 0 1 .8 1l5.7-.1v5.6c0 .8.3 1.1 1.1 1.1h4.5c.7 0 1 .2.9.9v4.3c0 1 .2 1.3 1.3 1.3h10.5c1 0 1.3.3 1.3 1.3v4.3c0 .6.1.9.8.9h4.8c.6 0 .8-.2.8-.8v-3.4l-.1-8.8h5.8c.7 0 .8-.4.8-1v-4.5c0-.8.2-1.1 1-1.1h4.5c.7 0 1-.2 1-1v-5.5h3.5c3 0 3 0 3-3l.1-10h5.4c.8 0 1.1-.2 1.1-1.1V27c0-.7-.2-1-.9-1h-4.6c-.7 0-1-.2-.9-.9v-4.6c0-.7.2-1 1-1h11.2c.6 0 .9.2.9.9V25c0 .7.3 1 1 1h4.4c.9 0 1.1-.3 1.1-1.1V14.3c0-1 .3-1.3 1.3-1.3h4.3c.7 0 1 .2.9 1v4.4c0 .9.3 1.2 1.2 1.2h10.8c.3 0 .6 0 1 .1V26l-5 .1c-1.4 0-1.4 0-1.4 1.4V44c0 1.5 0 1.5-1.5 1.5h-3.8c-.9 0-1.2-.3-1.2-1.2V33.6c0-.8-.2-1.1-1.1-1.1h-10.8c-.8 0-1.1.2-1.1 1.1v5.5h-4.9c-1.5 0-1.5 0-1.5 1.6v11.4c-.4 0-.8.1-1.3.1h-10.6c-.6 0-1.1 0-1 .8v12.2h-5.5c-.7 0-1.1.2-1.1 1v11c0 .7.2 1 .9.9h4.4c1 0 1.2-.3 1.2-1.2v-12h6.6l-.1 5.5c0 .8.3 1.1 1.1 1.1h5.4V77c0 .7.2 1 1 1h4.7c.6 0 .9-.2.8-.8v-5.7h5.6c.8 0 1 .3 1 1.1v4.3c0 .9.3 1.2 1.2 1.2l5.4.1v5.5c0 .6-.1 1-.8 1l-5.7-.1V79c0-.6-.1-1-.9-1h-4.8c-.3 0-.7.4-.8.7v5c0 .2.4.7.6.7h5.9V91h-.2c-1.8-1.2-3.6-2.5-5.9-2.6-.1 0-.4-.5-.4-.7v-2.1c0-.7-.2-1-1-1h-4.2c-1.1 0-1.4-.3-1.4-1.4.1-1.4 0-2.8 0-4.2 0-.6-.2-.9-.9-.9H125c-.6 0-.9.2-.9.9v4.7c0 .6.2.9.9.9h2.9c2.9 0 2.9 0 2.7 3 0 .6-.3.9-.9.9h-17.6c-.7 0-1-.2-1-.9l-.1-3 6 .1c.2 0 .6-.5.6-.8v-4.7c0-.7-.3-.9-1-.9h-4.3c-1 0-1.3.3-1.3 1.3l-.1 5.1h-6.2c0-.4-.1-.8-.1-1.1v-4.3c0-.6-.1-.9-.8-.9h-4.9c-.2 0-.7.4-.7.7v5c0 .2.4.7.6.7l6-.1c0 .9-.2 1.9-.2 2.8s-.3 1.2-1.2 1.2l-6.2.1c-1 0-2.1.4-2.9.9-1.5 1-3 2-5 1.7-1-.1-2 0-3.1 0-.9 0-1.3.2-1.2 1.1v2.8c0 2.5 0 2.5 2.5 2.5 1 0 1.4.3 1.3 1.3v21.8c0 2.8 0 2.8-2.8 2.8h-.1c-.7 0-1 .2-.9.9v4.5c0 .8-.3 1.1-1.1 1.1h-5.6l.1-5.6c0-.8-.3-1-1.1-1h-5.4l-.1-5.4c0-1 .3-1.2 1.3-1.2h10.6c.9 0 1.2-.3 1.2-1.2v-4.4c0-.7-.2-1-.9-1h-4.4c-.9 0-1.2-.2-1.2-1.2v-4.5c0-.6-.1-.9-.8-.9l-5.7.1v-13h5.5c.7 0 1-.2 1-.9V65.8c0-.7-.2-1-.9-.9h-4.2c-1.1 0-1.4.3-1.4 1.4v23.5c0 .4 0 .8.1 1.2h-6.6v-5.5c0-.8-.3-1.1-1.1-1h-4.4c-.8 0-1.1-.3-1.1-1.1v-11c0-.7.2-1 1-1h4c1.5 0 1.5 0 1.5-1.4V59.8c0-1.4 0-1.4-1.4-1.4-4.1.2-8 .2-11.8.2zM84.7 101v-2.4c0-.7-.3-.9-.9-.9h-4.7c-.7 0-.9.3-.9 1v2.3c0 1-.3 2.4.2 2.9.6.5 2 .3 3 .3 3.3 0 3.3 0 3.3-3.2zm9.8-29.3h-2.4c-.6 0-.9.2-.9.8v4.9c0 .2.4.7.7.7.8.1 1.7 0 2.5 0 1 0 2.4.3 2.9-.2.5-.6.3-2 .3-3 .1-3.2.1-3.2-3.1-3.2zm133.4 136.7V227c0 .7-.3.9-1 .9h-4.5c-.8 0-1.1.3-1 1.1v4.4c0 .8.3 1.1 1.1 1.1h10.9c.8 0 1-.3 1-1.1v-10.7c0-1 .3-1.3 1.2-1.2h4.4c.6 0 .9.2.9.9V240c0 .7-.3.9-1 .9h-24.1c-.7 0-1-.2-1-1v-4.5c0-.7-.2-1-1-1h-11.1c-.8 0-1 .3-1 1v4.5c0 .7-.3 1-1 1h-10.9c-.8 0-1.1-.3-1.1-1.1v-4.5c0-.8.3-1 1-.9h4.5c.7 0 1-.2 1-1v-4.3c0-.9.2-1.3 1.2-1.2h4.4c.6 0 .9-.2.9-.9l-.1-5.8h6.6c0 1.9 0 3.8-.1 5.8 0 .7.3.9.9.9h4.6c.7 0 1-.2 1-1v-4.5c0-.8-.2-1.1-1-1-1.8 0-3.6 0-5.5-.1v-5.5c0-.7-.2-1-.9-1h-4.4c-.9 0-1.2.2-1.2 1.2v5.2c-1.9 0-3.9.1-5.8 0-.2 0-.6-.5-.6-.8 0-1.4-.1-2.9 0-4.4 0-1-.3-1.2-1.2-1.2h-17c-1 0-1.4-.3-1.3-1.3v-5.2h5.6c.7 0 1-.2.9-.9v-4.6c0-.8-.3-1-1-1h-4.5c-.7 0-1 .2-1 1v5.6h-6.6v-13.1h5.7c.6 0 .9-.2.9-.9v-4.6c0-.7.2-1 1-1h4.3c1 0 1.3-.3 1.3-1.3v-3.9c0-1 .3-1.3 1.3-1.3h30c1.1 0 1.3.4 1.3 1.4v10.2c0 1.5 0 1.5 1.4 1.5h4.1c.7 0 1 .2 1 1v4.5c0 .8-.3 1-1.1 1h-4.4c-.7 0-1 .2-1 1v17.6c0 .7.3.9 1 .9h4.3c1 0 1.3-.3 1.3-1.3v-10.6c0-.7.2-1.1 1-1.1h5.4zm-39-9.7v8.5c0 .9.3 1.2 1.2 1.2h17.3c.9 0 1.1-.3 1.1-1.1V190c0-.8-.2-1.1-1.1-1.1H190c-.9 0-1.2.3-1.2 1.2l.1 8.6zm-32.5 35.7h-5.5c-.8 0-1.2.2-1.1 1.1v4.3c0 .8-.2 1.2-1.1 1.1h-4.4c-.8 0-1.1-.3-1.1-1.1v-10.7c0-.9-.2-1.3-1.2-1.3h-4c-1 0-1.3-.3-1.3-1.3v-23.1c0-1.7 0-1.7-1.6-1.7h-11.4v-19.5h5.5c.8 0 1.1.3 1 1.1v4.4c0 .7.2 1.1 1 1.1h4.6c.7 0 1-.3.9-1v-4.4c0-.9.3-1.2 1.2-1.2h10.5c1.1 0 1.4-.4 1.4-1.4v-11.7h11.9c.8 0 1.1.3 1.1 1.1v4.3c0 .8-.2 1.2-1.1 1.1h-4.5c-.6 0-.9.2-.9.9V188c0 .6.3.9.9.9h4.6c.8 0 1-.3 1-1v-4.3c0-1 .3-1.3 1.3-1.2h4.1c1 0 1.2-.3 1.2-1.3v-10.7c0-.8.3-1.1 1.1-1.1h10.9c.7 0 1 .2 1 1v4.5c0 .8-.3 1.1-1.1 1H177c-.9 0-1.2.3-1.2 1.2v10.8c0 .7-.2 1-1 1h-3.9c-1.6 0-1.6 0-1.6 1.5v4.9l-5.5.1c-.7 0-1 .3-1 1v4.6c0 .6-.2.9-.9.9h-5.6v-5.6c0-.7-.2-1-1-.9h-4.5c-.8 0-1.1.2-1.1 1v5.5h-5.3c-1 0-1.3.3-1.2 1.2v3.9c0 1 .2 1.4 1.3 1.4h5.2v5.4c0 .8-.2 1.2-1.1 1.1h-4.3c-.8 0-1.2.2-1.1 1.1v4.3c0 .8.2 1.2 1.1 1.1h4.2c.9 0 1.3.2 1.3 1.2v4.2c0 .9.3 1.2 1.2 1.2h4.4c.7 0 .9.2.9 1 0 1.8 0 3.6.1 5.5zM22.9 0h21.3c1.1 0 1.4.3 1.4 1.4v42.9c0 1-.3 1.4-1.3 1.4H1.4c-1.1 0-1.4-.2-1.4-1.4V1.4C0 .4.3 0 1.4 0h21.5zm16.2 22.8V7.7c0-.9-.2-1.2-1.2-1.2H7.8c-1 0-1.2.3-1.2 1.2v30.1c0 .9.2 1.2 1.2 1.2h30.1c1 0 1.3-.3 1.3-1.3l-.1-14.9zM.1 218v-21.4c0-.9.2-1.3 1.2-1.3h43.2c.9 0 1.2.2 1.2 1.1v43.3c0 .8-.2 1.1-1.1 1.1H1.2c-1 0-1.1-.5-1.1-1.3V218zm22.8-16.2H7.8c-.9 0-1.2.2-1.2 1.2v30.3c0 .9.3 1.1 1.1 1.1H38c.8 0 1.1-.2 1.1-1.1v-30.2c0-1-.3-1.3-1.3-1.3H22.9zM218.2 0h21.3c1.4 0 1.4 0 1.4 1.4V44c0 1.6 0 1.6-1.6 1.6h-42.5c-1.4 0-1.4 0-1.4-1.4V1.5c0-1.5 0-1.5 1.5-1.5h21.3zm-.2 39.1h15.1c1 0 1.3-.2 1.3-1.3v-30c0-1-.3-1.3-1.4-1.3h-29.9c-1 0-1.4.2-1.4 1.3v30c0 1 .3 1.3 1.3 1.3h15zM19.7 91.2c0-.3-.1-.7-.1-1.1V73c0-1.1.3-1.5 1.4-1.4 1.7.1 3.3 0 5 .1 0 .4.1.9.1 1.4v10.5c0 .8.2 1.1 1.1 1.1h4.4c.8 0 1.1-.2 1.1-1.1v-4.5c0-.7.2-1 .9-1h17.7c.6 0 .9.2.9.9v4.3c0 1-.3 1.4-1.3 1.4H40.3c-.8 0-1.1.2-1.1 1v3.9c0 1.5 0 1.5 1.5 1.5h24.6v11.7c0 1.1.2 1.5 1.4 1.4 1.7 0 3.5 0 5.2.1 0 1.7-.1 3.4 0 5.2 0 1-.3 1.3-1.3 1.3H60.1c-.9 0-1.3.2-1.2 1.2v4.4c0 .6-.2.9-.9.9h-4.8c-.6 0-.8-.2-.8-.8v-4.3c0-1.1-.3-1.4-1.4-1.4H40.5c-.8 0-1.2-.3-1.1-1.1v-4.4c0-.7.3-1 1-1h4.5c.7 0 1-.3 1-1v-4.5c0-.7-.2-1-1-1H33.5c-.8 0-1.1.2-1.1 1v4.3c0 .9-.2 1.2-1.2 1.2H27c-1 0-1.2-.3-1.2-1.3V92.4c0-.9-.3-1.2-1.2-1.2h-4.9zm32.4 9.8v2.3c0 .6.2.9.9.9h4.8c.6 0 .8-.2.8-.8v-4.8c0-.6-.2-.9-.8-.9h-4.9c-.3 0-.7.4-.7.7-.1.9 0 1.7-.1 2.6zm32.5 133.4c0 1.9.1 3.8 0 5.7 0 .2-.5.7-.7.7H79c-.6 0-.8-.3-.8-.9v-4.4c0-1-.3-1.2-1.3-1.2H60.1c-1.1 0-1.5-.2-1.4-1.4.1-1.3 0-2.5 0-3.8 0-1-.2-1.4-1.3-1.3-1.4.1-2.8 0-4.2 0-.8 0-1.1-.2-1.1-1v-17.5c0-.8.3-1 1-1h4.4c.9 0 1.1.3 1.1 1.1V220c0 1 .3 1.3 1.3 1.3H64c.9 0 1.2-.3 1.2-1.2v-18.4h5.5c.8 0 1.1.2 1.1 1.1v10.7c0 .9.2 1.3 1.2 1.3h10.6c1 0 1.3-.3 1.2-1.3v-4.2c0-.9.3-1.1 1.1-1.1h4.2c1 0 1.2.3 1.2 1.2v16.9c0 1 .2 1.4 1.3 1.4 1.7-.1 3.5 0 5.3 0v11.8c0 1-.3 1.3-1.3 1.3h-4.3c-.7 0-1-.2-.9-.9v-4.6c0-.6-.1-1-.8-.9h-6c0-1.7 0-3.5.1-5.2 0-1-.2-1.4-1.3-1.4h-5c0-.4-.2-.7-.2-1.1v-4.3c0-.7-.2-1-1-1h-4.6c-.6 0-.9.2-.9.9v4.8c0 .3.4.8.7.8h6c0 .3-.2.7-.2 1v4.4c0 .9.2 1.3 1.2 1.2 1.7-.2 3.5-.1 5.2-.1z"/><path d="M227.8 156.3v5.4c0 .8.3 1.1 1.1 1.1h4.5c.6 0 .9.2.9.9v4.6c0 .7.2 1 1 1h4.5c.7 0 1 .2 1 1v4.6c0 .7-.3.9-1 .9h-4.6c-.7 0-.9.2-.9.9v17.6c0 .8.3 1 1 1h4.3c1 0 1.2.3 1.2 1.3v10.6c0 .9-.3 1.2-1.2 1.2h-11.9v-18.5c0-.7-.3-1-1-1h-4.6c-.6 0-.9-.2-.9-.9v-4.7c0-.7.3-.9 1-.9h4.5c.7 0 1-.2 1-1v-4.6c0-.7-.3-.9-1-.9h-4.6c-.6 0-.9-.1-.9-.8v-17.8c0-.6.2-.9.8-.9l5.8-.1zM110.6 13.1l5.4-.1c1 0 1.3-.2 1.3-1.3V1.3c0-1.1.3-1.4 1.4-1.4 1.4.1 2.8 0 4.2 0 .7 0 1 .2.9.9v4.5c0 .8.2 1.1 1.1 1.1h5.6v5.5c0 .8-.2 1.1-1.1 1.1h-4c-1.1 0-1.4.2-1.4 1.4V26h-5.3c-1.1 0-1.3.3-1.3 1.4V39h-6.6v-5.8c0-.2-.5-.7-.7-.7h-4.9c-.2 0-.7.4-.7.6V39h-5.8c-.6 0-.8.2-.8.8v5.8h-6.6v-5.4c0-.9.2-1.3 1.2-1.3h4.3c.8 0 1-.3 1-1.1V27.2c0-1 .2-1.4 1.3-1.4h10.6c.7 0 1.1-.1 1.1-.9V13.4c-.1 0-.2-.1-.2-.3zM45.7 58.6H52c0 .1.1.3.1.4v11.8c0 .8-.4.9-1 .9H26l.1-5.7c0-.8-.5-.9-1.1-.9H14.6c-1.5 0-1.5 0-1.5-1.5V53.5c0-.9.2-1.3 1.2-1.2h17.1c1 0 1.3.3 1.3 1.3v4.2c0 .8.3 1.1 1.1 1h5.5v5.5c0 .9.3 1.1 1.1 1.1h4.3c.8 0 1.1-.2 1.1-1.1-.2-2.1-.1-3.9-.1-5.7zm123.6 172.5v-8.5c0-.8.2-1.2 1.1-1.2h17.3c.9 0 1.2.3 1.1 1.2v10.7c0 .9-.3 1.2-1.2 1.1h-4.4c-.7 0-1 .2-.9.9v4.6c0 .7-.2 1-.9 1h-11.2c-.8 0-.9-.4-.9-1.1v-8.7zM71.8 19.6H53.5c-.9 0-1.3-.2-1.3-1.2V1.2c0-.9.2-1.2 1.2-1.2h4.3c.9 0 1.1.3 1.1 1.1v4.4c0 .6.1 1 .9 1h4.7c.7 0 .9-.3.9-1V1.1c0-.8.2-1.2 1.1-1.1h4.3c.9 0 1.2.3 1.2 1.2v17.3c-.2.4-.2.8-.1 1.1-.1.1 0 0 0 0zm26-6.5h-12c-.9 0-1.1.3-1.1 1.1l-.1 5.6c-1.7 0-3.5-.1-5.2-.1-.9 0-1.2-.2-1.2-1.1V1.3c0-.9.3-1.2 1.2-1.2H103c.9 0 1.2.2 1.2 1.2v5.4h-5.5c-.7 0-1.1.2-1.1 1 .2 1.7.2 3.6.2 5.4zm0 214.7v-5.6c0-.6.2-.9.9-.9H110c.7 0 .9.3.9.9v4.5c0 .9.3 1.1 1.1 1.1h4.4c.7 0 1 .3 1 1v11c0 .8-.3 1-1 1h-10.9c-.8 0-1-.3-1-1.1v-10.6c0-1.1-.3-1.4-1.4-1.3-1.9.1-3.7 0-5.3 0zm26-6.6l-6 .1c-.2 0-.5-.6-.6-.9v-4.2c.1-1.1-.3-1.4-1.4-1.4-1.3.1-2.7 0-4.1 0-.7 0-1.1-.2-1-1v-4.6c0-.7.3-.9 1-.9h4.5c.8 0 1.1-.3 1-1.1v-5.5h6.6v5.3c0 1.1.4 1.4 1.4 1.3h4c.7 0 1.1.2 1.1 1v4.5c0 .8-.3 1-1 1h-4.5c-.6 0-1 .2-1 .9v5.5z"/><path d="M32.6 169.2v12.2c0 .7-.3.9-.9.9H20.6c-.7 0-.9-.3-.9-1v-4.5c0-.8-.2-1.1-1-1.1h-4.5c-.6 0-1-.2-1-.9v-5.7h6.6l-.1 5.8c0 .6.2.8.8.8h4.8c.6 0 .9-.2.9-.8v-5.8l6.4.1zM130.4 6.6l-.1-5.9c0-.8.6-.6 1.1-.6h17.3c.9 0 1.1.3 1.1 1.1v4.4c0 .7-.2 1-1 1h-4.3c-.9 0-1.3.2-1.3 1.2v4.3c0 .7-.2 1.1-1 1h-4.6c-.7 0-.9-.2-.9-1V7.5c0-.7-.2-1-.9-.9h-5.4c-.1 0 0 0 0 0zm97.4 110.6h11.8c1 0 1.4.2 1.3 1.3-.1 1.3-.1 2.6 0 3.9 0 1.1-.3 1.4-1.4 1.3h-4.2c-.8 0-1 .3-1 1v4.4c0 .8-.2 1.1-1.1 1.1h-5.5l.1-13zm0-26h12c.8 0 1.1.2 1.1 1.1v10.9c0 .7-.2 1-1 1h-4.6c-.7 0-.9-.3-.9-1v-4.5c0-.8-.3-1.1-1.1-1.1h-4.5c-.7 0-1-.2-.9-.9l-.1-5.5zm-52-78.1V7.5c0-.7.2-1 1-1h4.4c.8 0 1.2-.2 1.1-1.1V1.1c0-.8.2-1.2 1.1-1.1h4.4c.7 0 1 .2 1 1v11c0 .9-.4 1-1.1 1l-11.9.1zM65.2 32.6v-5.3c0-1 .3-1.3 1.3-1.3h4.2c.8 0 1.1-.3 1-1.1v-5.4h5.8c.2 0 .6.4.6.7v11.5c0 .6-.3.8-.9.8l-12 .1c0-.1 0 0 0 0zm104 175.7v5.7c0 .7-.4.8-1 .8H164c-1.1-.1-1.4.4-1.4 1.4.1 1.3 0 2.7 0 4 0 .7-.2 1-1 1H157c-.5 0-.9-.1-.9-.8v-12.2l13.1.1zM.1 65.1v-5.4c0-.7.2-1.1 1-1.1h4.6c.6 0 .9.2.9.9v11.3c0 .6-.3.9-.9.9H1.1c-.7 0-1-.2-1-1v-5.6z"/><path d="M6.6 78.2H12c.8 0 1.2.2 1.1 1.1v4.5c0 .7-.2 1-.9.9H1c-.7 0-.9-.3-.9-1v-4.6c0-.7.3-.9 1-.9h5.5zm104-65.1H105c-.7 0-.8.3-.8.9v4.5c0 .8-.2 1.1-1 1.1h-4.5c-.7 0-1-.2-1-.9v-5.6h5.2c.9 0 1.3-.2 1.3-1.2l.1-5.3h5.4c.8 0 1.1.2 1.1 1-.2 1.9-.2 3.7-.2 5.5zM78.1 45.7l.1-5.5c0-.9.3-1.2 1.2-1.2h4.1c1 0 1.3.3 1.2 1.3v4c0 .9.2 1.3 1.2 1.2h5.3V51c0 .3-.4.9-.7.9h-5.9v-5.6c0-.6-.2-.9-.9-.9a53.96 53.96 0 0 1-5.6.3zm78.3 162.6h-6.6v-6.6h6.6v6.6zM123.7 26h5.5c.8 0 1.1.2 1 1v5.5h-5.7c-.7 0-1-.2-.9-.9.2-1.8.2-3.7.1-5.6zM6.5 97.8h6.6v6.6c-1.8 0-3.6-.1-5.5 0-.9 0-1.1-.3-1.1-1.1.1-2 .1-3.8 0-5.5zm39.2 71.4v5.5c0 .9-.3 1.2-1.2 1.1h-4.3c-.8 0-1.1-.2-1.1-1v-5.6h6.6zM65.2 39.1h5.6c.8 0 1 .3 1 1v5.6h-5.4c-.8 0-1.2-.2-1.1-1.1l-.1-5.5zm-6.6 156.1h5.5c.8 0 1.2.2 1.1 1.1v5.5h-5.4c-.9 0-1.2-.2-1.2-1.2v-5.4zm58.6 6.6h-5.5c-.8 0-1.1-.2-1.1-1.1v-5.5h5.6c.7 0 1.1.1 1 1v5.6zM13.1 97.8v-5.7c0-.7.3-.9 1-.9h5.7v5.1c0 1.1-.2 1.5-1.4 1.4-1.9-.1-3.6 0-5.3.1zm-6.6 0H1.1c-.8 0-1.2-.2-1.2-1.1v-4.5c0-.7.2-1 .9-.9h4.6c.7 0 1 .2 1 .9l.1 5.6zm231.2-26.1h-2.4c-.6 0-.9-.2-.9-.9V66c0-.6.2-.8.8-.8h4.8c.7 0 .9.3.9.9v4.7c0 .6-.2.9-.9.9-.8-.1-1.5 0-2.3 0zm-234.3 78c3.1 0 3.1 0 3.1 3.1v2.4c0 .6-.2 1-.9 1H.9c-.6 0-.9-.2-.9-.9v-4.7c0-.7.3-.9 1-.9.8.1 1.6 0 2.4 0zm35.8-91.1V53c0-.7.3-.9 1-.9h4.4c.9 0 1.2.2 1.2 1.2v5.3c0-.1-6.6 0-6.6 0zm84.6 162.6l5.2.1c.9 0 1.3.3 1.2 1.2v4.4c0 .6-.2.9-.9.9h-4.8c-.3 0-.7-.5-.8-.7l.1-5.9zM166 6.6c-3.2 0-3.3 0-3.2-3.2 0-1-.2-2.5.3-3s2-.2 3-.2h2.4c.3 0 .7.5.7.7v4.9c0 .6-.3.8-.9.8H166zm-9.7 227.8h5.5c.7 0 1 .2 1 1v4.5c0 .7-.2 1-1 1h-4.6c-.6 0-1-.2-.9-.8v-5.7c.1-.1 0 0 0 0zm81.5-156.2c3.1 0 3.1 0 3.1 3.1v2.4c0 .8-.3 1-1 1h-4.5c-.7 0-1-.2-1-1v-4.6c0-.7.3-1 1-.9h2.4zM84.6 19.7l6.1-.1c.2 0 .5.5.5.7v4.9c0 .2-.5.7-.8.7h-4.7c-.8 0-1-.3-1-1l-.1-5.2zm52.2 218v2.3c0 .6-.2.9-.9.9h-4.7c-.6 0-.9-.2-.9-.9v-4.7c0-.6.2-.9.9-.9h4.7c.7 0 .9.3.9 1-.1.7 0 1.5 0 2.3zm-6.6-85.3h5.6c.7 0 1 .3 1 1v8.4c0 .7-.3.9-1 .9h-4.6c-.7 0-1-.2-.9-1v-4.6c0-.7-.3-1-1-.9h-4.6c-.7 0-1-.2-1-.9 0-3.5-.4-2.9 2.7-2.9h3.8zm19.6-61.2h5.5c.8 0 1.1.3 1.1 1.1v11c0 .7-.2.9-.9.9-2.9 0-2.9 0-2.9-2.8v-3.5c.1-2.4-1-4.3-2.3-6.1-.4-.2-.4-.4-.5-.6zm58.6 78h5.5c.7 0 1 .2 1 1v4.6c0 .6-.2.9-.8.9h-4.8c-.6 0-.8-.2-.8-.8v-5.7zm-71.8-97.5v-5.9c0-.2-.6-.6-.9-.7h-5.5v-5.7c0-.7.3-.9.9-.8h4.5c.8 0 1.1-.2 1.1-1.1l-.1-5.6 5.6.1c.8 0 1.1.3 1.1 1.1v18.5l-6.7.1zm39.2-32.6v5.4c0 .8-.2 1.2-1.1 1.1h-4.4c-.7 0-1.1-.2-1-1V40c0-.7.2-1 1-.9h5.5zm-32.6.1h5.8c.6 0 .8.3.8.9v4.8c0 .6-.2.8-.8.8h-4.8c-.8 0-.9-.4-.9-1l-.1-5.5c0-.1 0 0 0 0zM26 117.1l.1-5.2c0-.9.3-1.3 1.2-1.2h4.3c.7 0 1 .2 1 1v4.6c0 .6-.2.9-.9.9l-5.7-.1c-.1 0 0 0 0 0zm71.8-71.4h6.6l-.1 5.7c0 .6.3.8.9.8h4.5c.7 0 1.1.2 1.1 1v5.5H98.9c-.8 0-1.1-.3-1.1-1.1V45.7zm19.4-6.6h5.3c1.1 0 1.4.3 1.3 1.4v5.3l-4.9-.1c-1.7 0-1.7 0-1.7-1.6v-5zm-12.9 0h6.3v5.6c0 .7-.3.9-1 .9l-5.5.1.2-6.6zm94.4 162.7h-2.4c-.6 0-.9-.2-.9-.9v-4.8c0-.6.2-.8.8-.8h4.8c.7 0 .9.3.9.9v4.7c0 .6-.2.9-.9.9h-2.3zM22.9 13.1h8.5c.9 0 1.2.3 1.2 1.2v17.2c0 .9-.2 1.2-1.2 1.2H14.1c-.8 0-1.1-.3-1.1-1.1V14.4c0-1 .4-1.3 1.3-1.3h8.6zm9.7 205.1v8.5c0 .8-.2 1.1-1.1 1.1H14.1c-.8 0-1-.3-1-1.1v-17.4c0-.8.2-1.1 1.1-1.1h17.4c.9 0 1.1.3 1.1 1.1l-.1 8.9zM208.3 22.8v-8.5c0-.9.2-1.2 1.2-1.2h17.2c1 0 1.2.3 1.2 1.2v17c0 .9-.2 1.3-1.2 1.2h-17.2c-.9 0-1.2-.3-1.2-1.2v-8.5z"/><path d="M102.4 127.6v8.2c0 3-.5 5.5-1.5 7.2-.9 1.7-2.4 3-4.5 3.9l-1-1.6c2-.9 3.4-2.1 4.2-3.6.7-1.5 1.1-3.5 1.2-6v-8.2l1.6.1zm3.8 12.7h-1.7v-14.8h-6v15h-1.7v-16.8h9.4v16.6zm.9 4.9l-1.3 1.3c-.9-1.3-2.1-2.7-3.6-4.2l1.2-1.2c1.5 1.4 2.7 2.8 3.7 4.1zm.6-15.5v-1.8h7v-5.2h1.8v5.2h3v1.8h-3v14.5c0 1.7-.7 2.5-2.2 2.5H111l-.4-1.8c1.1.1 2.1.1 3.2.1.6 0 1-.4 1-1.3v-12.1c-1.6 4.7-4 8.5-7.3 11.7l-1-1.7c3.5-3.1 6-7 7.5-12l-6.3.1zm19.3 1v11.7l2.7-2.6.5 2c-1.5 1.5-3.2 2.9-4.9 4.1l-.7-1.7c.3-.3.6-.8.6-1.2v-10.5h-3.7v-1.8h5.5zm1.8-3.7l-1.3 1.3c-1.1-1.3-2.5-2.7-4.4-4.1l1.3-1.3c1.9 1.4 3.3 2.7 4.4 4.1zm4.5 6v-7.2h-3.5V124H142v8.1c0 5.3.4 9 1.2 11.1.3.8.6 1.3.9 1.3.1 0 .2-.3.3-1 0-.7.1-1.8.1-3.3l1.5.7c-.1 2.5-.3 4.2-.6 4.9-.2.5-.5.8-.9.8-1 0-1.8-.6-2.6-1.8-1.3-2.2-1.9-6.4-1.9-12.7v-6.3h-4.9v7.2h3.6v1.8h-3.6V147h-1.8v-12.1h-4V133h4z" fill="#231815"/><path d="M128.1 97.3H126v4.7h2.1v-4.7zm0 6v-.9H126v.4c0 .3-.3.6-.8.7-.1 0-.3 0-.5.1l-2 .2v-7.6h3.4v.3h1.6L129 95l3 1.1c.3 0 .4.2.4.4 0 .3-.3.7-.9 1.2v.6l.1 3.9c0 .3-.2.5-.8.6l-2 .3-.7.2zm5.4 16.3l-.6.1c2.7-2.2 3.6-4.9 3.5-7.5V110h3.3v.3h1.3l.7-.7 2.1.7c.2.1.6.4.6.6s-.2.4-.4.6v4.2c0 .3.1.4.3.4h.3c.2 0 .5-.2.7-.7l1.2-3.1v.1l.2 2.6c0 .4.1.8.4 1.1s.4.6.4.9c0 1.3-.9 2-2.5 2h-2.4c-1.4 0-1.8-.8-1.8-2.5v-5.7h-1.3v.6c.2 4.4-1.6 6.9-6 8.2zm-1.1-15.2v-5.5h3.3v.7h1.9v-4.9l2.8.2c.5 0 .3 1 .3 1.5v.8h1.7l1.3-1.8 2.7 1.7c.3.1.3.3.2.5-.1.1-.4.2-.7.2h-5.1v1.6h3l1.2-1.2 2 1.2c.6.4.2.8-.1 1.2-.2.2-2.1.8-5.5 1.7l2-2.2h-7.8v4h2.1V101l2.5.2c.3 0 .5 0 .6.2v2.6h.4l.9-.9c1.4.7 2.1 1 2 1.1-.1.2-.1.3-.4.4h-2.9v.5c0 .7.3 1.1.8 1.1h1.2c.4 0 .7-.1 1.1-.7.4-.8.6-1.1.8-1.5s.2-.2.2 0v1.2c0 .3.2.6.5.8s.5.6.5 1.1c-.1 1-1.1 1.5-2.8 1.6h-2.9c-2.1 0-2.7-.9-2.5-2.9v-1.2h-2.1v1.3c-.1 6.1-2 11.2-6.5 13.6 1.9-3.6 3.3-8.6 3.2-13.8 0 0-.3.1-.6.1h-4.6l-1.1 3.7h1.3l1.5-1.6 2.5 1.4a.55.55 0 0 1 .3.5c0 .3-.3.7-.9 1.1 0 0 0 .2-.1.4l-.6 4c-.3 1.7-1.6 3.1-4.6 3.2 0-1.9-1.1-3.5-2.9-4 0 0-.1-.2.1-.2.3 0 3.2.3 3.2.3.7 0 1.1-.1 1.3-1.2.2-1 .3-2.6.4-3.2h-1.1l-1.1 1.2s-.2 0-.3-.1c-1.1-.4-1.7-.9-2.5-1.4-.2-.3-.1-.8.2-.9.2-.3.4-.9.5-1.2l.4-2h-2.3v-.6h7l1.4-1.6 2.7 1.5v-.7zm-22.2.7v3.2h3.7v-3.2h-3.7zm3.6-3.7h-3.7v3.1h3.7v-3.1zm-3.6 7.6v3.1h3.7V109h-3.7zm-8.3-13.9l3.1 1.4c.3.1.3.3.2.5-.1.1-.4.2-.8.2l-9.9-.1v-.6h6l1.4-1.4zm-1.1 5.2h-2.7v5.6h2.7v-5.6zM97 113.8c-.8 0-1.2-.5-1.3-1.3 0-.9-.3-2.2-.7-4 2.6.9 4.3 1.9 4.2 3.2-.2 1.3-.9 2-2.2 2.1zm20 5.7c-.6 0-1.5-.2-1.8-.8-.5-1.1-1.4-2.7-2.8-5 4.4.9 6.8 2.2 6.6 3.8 0 1.2-.7 1.9-2 2zm-22.6-.4l-1.1-4c2 0 3.8-.3 6.1-.8.5-2.4.7-4.6.9-6l4.3 1.1c-.4.9-2.2 3.2-3.3 4.3h.3c1.2 0 3.4-.3 4.2-.5.5-.1.5 0 .1.5-3.5 1.9-8.9 4.6-11.5 5.4zm6.4-11.6v-.9h-2.7v.4c0 .3-.2.5-.6.6-.7.2-1.3.3-2.7.3v-9h3.3v.7h2.3l1.4-1.4 3 1.1c.4 0 .6.2.5.4 0 .3-.3.7-1.1 1.2v5.6s0 .6-.6.6c-1.1.2-1.8.3-2.8.4zm15.5-12.8l3.2 1.8c.3.1.3.3.2.5 0 .1-.3.2-.7.2h-4.7a25.03 25.03 0 0 1-3.1 3.4h2.2l1.7-1.7 3 1.3c.3.1.4.3.4.5 0 .3-.3.7-1.1 1.2v10.8c0 .4 0 .7-.6.8-1 .2-2 .3-3 .3v-1.1h-3.7v.3c0 .2-.1.7-.6.8l2.8 1.6c.4.1 0 .5-.8 1.1-1.7 1.2-4.7 2.5-7.9 3l.3-.3c2-1.6 3.7-3.4 5-5.3-.8.1-1.2.2-2 .2v-13.9h2.7l3.1-3.2h-7v-.6h9.2l1.4-1.7z" fill="#ec0000"/></svg>