<svg xmlns="http://www.w3.org/2000/svg" viewBox="0 0 240.9 240.9"><path d="M235.6 152.2h4.9v10h-4.8v5h4.8v9.7h-4.8v-4.8h-5.1v4.8H221V172h4.8v-14.8h-4.9v-5.1h4.9v-14.6h-5v-4.7h-4.9v4.6h-4.6v4.9h4.6v-4.9h5v10.1h-5v4.7h-4.7v-4.6h-4.9v4.6h4.9v10.1h4.7v5h-14.7v4.8h-4.7v-4.6h-4.9v-5h4.8v-5.1h4.7v-9.7h-4.7v-5.1h4.7v-5h5V133h-4.9v4.6h-4.7v5h-5v9.6h-5v-9.5h-4.7v4.8h-5.1v4.7h-5v5.1H167v5h9.6v-4.8h5v4.9h4.7v5h-9.5v4.7h4.8v5h-4.8v5h4.9v4.8h-10.1v-9.8H162v-5h4.8v-4.7h-10v-4.9h-5v9.5h-4.7v-4.6h-5v-5h5.1v-4.9c4-.3 8.4.4 9.6-5v4.8h5v-9.6h-4.7c-1.4-8.3-.7-16.5-.9-24.7h.6v5h9.9v9.7h-4.9v-4.6H157v4.6h4.9v5.1h5.1v4.9h4.7v-10h4.9v-9.8h5.1v9.7h9.6v-4.7h-4.8v-10h4.9v5h4.9V123h-4.9v-4.6h-9.8v4.7h-5v4.9h-5v-5h-4.5v-5h4.6v-5h5v-5h5.1v5h4.6v-5h-4.6v-4.8h9.8v4.6h9.7v-4.6h4.9v-5h5.1v5h4.6v-4.9h-4.6V83.5h4.7v-10h10v-4.7h4.7v4.7h5v5.1H226v5.1h-5v4.9h4.9v-4.9h9.8v5h-4.9v14.7H221v4.8h9.6v10h5.1v4.8h-14.6v5.1h9.6v4.9h5v-10h4.9v14.7h-4.9v5.1h-4.9v5.1h4.9c-.1 1.2 0 2.8-.1 4.3h-4.9v4.9h4.9v-4.9zm-19.7-39h-14.5v14.5h14.5v-14.5zm5.2-19.9v4.8h4.8v-4.8h-4.8zM221 118h4.9v-4.8H221v4.8zm-152.4 4.8v5h-10v19.8h-4.8v-5h-4.9v4.9h4.9v4.7h-10v5.1h-4.7v-19.7H34V133h-4.9v4.6H34v5h-5v5h4.9v4.7H19.3v-4.7h5v-4.9h-4.9v4.9H-.3v-5h4.9v-5h5.1v-4.8h4.8v-10.1h5V108h24.4v4.9H49v5h-4.9v9.8h5v5h-5v4.6H49v-4.6h4.9v-10.1h-5V118h5v-4.9H49v-9.8h5v4.6h14.7v-4.6h-4.9v-5.1h4.9v-5.1h-4.9v-4.8h-5.1v-5H54v-10h-5v-4.7h-5.1v4.6h-4.7v5.1H34v-5.1h-5v-4.7h10v-5h-9.8v-5h14.5v4.9h10.1v5h4.7v4.7h14.7v15.1h5.1l.1 4.8h-5v4.9h4.9v5.1h-5v4.6h4.9V103h4.9v-5h-4.9v-5h5.9v13.7c0 .3-.1.8-.2.8-1.1.1-.7 1-.7 1.5v3.6H58.5v9.7l10.1.5zm-44.1-9.7v14.5H39v-14.5H24.5zm39.1-29.6h4.9v-4.8h-4.9v4.8zm78.7-78.6V0H167v4.9h-5v14.8h4.9v5.1h4.8v9.7h-4.8v-5h-5v4.9h-5V5h-5.1v9.6h-4.6v5.1h4.5v44.2h-4.6v-5h-5v-4.8h5v-5h-10v-4.9h-9.7V49h-9.7v-4.8h-4.9v10h-5.1v-10H98v-4.7h-5v-5.1h4.9v-9.7H93V14.6h5.1v5h5v19.6h4.7V19.7h34.5V10h4.9V5l-4.9-.1zm-5.1 24.5h-4.6v10h9.6V44h4.9v-4.6h-4.9v-5.1h5v-9.6h-9.9l-.1 4.7zm-24.3-4.7v14.6h14.5V24.7h-14.5zm108 167v9.7h5v5h4.7v5.1h9.9v4.7h-4.8v5h4.9v5h-4.8v9.7h4.8v5H226V231h-5v-4.7h9.5v-5.1h-34.1v-5.1h-14.8v-4.8h14.6v-5h-4.8v-5h4.8v-9.6h4.7v4.8h10v-4.9l10 .1zm-19.6 24.4h14.5v-14.5h-14.5v14.5zm24.6-4.5H221v4.5h4.9v-4.5zm-162.4 4.6v-4.7h9.7v-5.1h10.1v5.1h5v4.7h-5v5h-4.9v14.7h4.9v-9.5h5v14.5h-15V236h-4.7v4.8H53.9V236H44v-5h4.9v-9.7h9.7v-5.1h4.9v10h-5v4.6h4.9v-4.6h4.9v-10h-4.8zm73.8 10h-14.8v-4.9h-9.8v4.9h-5v-4.9H103v4.8H93v-4.9h5.1v-9.8h9.8v-14.8h5v-5h9.8v5.1h10v4.6h4.7v-4.6h5v9.7h-9.6v5h9.6v9.8h-5.1v-5h-4.6v4.9h4.6a43.35 43.35 0 0 0 0 5.1zm-24.4-10.1h14.5v-14.5h-14.5v14.5zm-29.6-24.3v-5h5v-4.7h4.8V177h5.1v4.9h5V177h9.7v-5h5v5.1h4.7v5h-14.7v4.7h4.9v5H103v9.8h-5v10h-5v-9.9h-4.7v4.9h-5v-5h-10v-4.7h4.9v-5c1.7-.1 3.4-.1 5.1-.1v4.9h14.6v-9.8h-5v5l-9.6-.1zM215.9 44.1h5V54h9.7v-4.9h-4.5v-5h4.6v-4.7h5V49h5v9.7h-4.9v10.1h-5.1v-5.1h-9.8V59h-5v5h-4.7v-5h-10v4.9h-4.8v-5h-10v-9.8h5.1V54h14.7v-4.9h5.1V54h4.7l-.1-9.9z"/><path d="M34.3 241H.1v-34.3h34.3V241zM5.1 211.6v24.3h24.3v-24.3H5.1zM240.9 34.4h-34.3V.1h34.3v34.3zm-5-29.3h-24.3v24.3h24.3V5.1zM34.3 34.4H.1V.1h34.3v34.3zm-5-5V5.1H5.1v24.3h24.2zM64 58.9v-4.7h4.9v-5.1h-10v-5h14.6v-4.7H69v-10h-5.1v-4.8h9.8v9.7h5v29.5h5v14.7h-5v-9.7H69v-5h4.5v-5.1l-9.5.2zm-5.1 132.9h-4.7v-5h-5.1V182h5.1v-5.1h4.6v-5.1h-4.6v-14.6h4.6v9.8h5v-9.8h5.1v4.8h4.6v9.7H69v5h4.5v5h-9.6v4.8h-5.1l.1 5.3zM206.6 236h-9.7v-4.9h-5v9.8h-5v-4.8h-4.7v4.8h-5v-5h-5.1v-5.1h4.9v-4.7h-4.9v-5h5.1v-5h5v14.7h4.8v-9.6h10v5h4.7v4.7h5.1c-.3 1.8-.3 3.4-.2 5.1zM54.1 206.5v9.7h-10v4.9h-4.7v-19.6H44v-4.8h-9.6v-5h-9.7v-5.1h14.8v4.9h4.8v-4.9h5.1v19.8c1.5.2 3.1.2 4.7.1zm128-5v10.1H172v9.8h-9.8v-14.7h-14.6v-5h19.6V197h4.8v4.8l10.1-.3zM29.4 49.2h-4.7v5h-5.1V59h-5.1v-9.6H4.9v4.9H.1v-10h19.6v-4.8h19.7v4.7h-10v5zM54.2 5h4.7V0h10v4.8h4.7V.1h5v5h5.1v5.1H69v4.7h4.7v5h-9.8V10h-9.8V5h.1zm122.9 0h19.7V0h4.6v14.6h-4.5v4.9h-5V10h-5v9.6h-4.8v-5.1h-5V5zM69 137.6V133h4.6v-10.1H69v-4.8h14.7v3.8c0 .3.1.6.3.9.2.4.6.8.6 1.1v7.8c0 .3-.1.7-.2 1-.2.5-.7 1-.7 1.5v8.1h-5.1v-5l-9.6.3z"/><path d="M14.4 98.5v-5h10v-4.7h9.8v-5.1H39v9.6h-9.8v5H39v5H19.4v-5l-5 .2zM19.3 69v9.8H4.6l-.1-5.1h5v-4.6H4.6v4.6H-.3V59.1h4.9V64h5.1v-5h4.8v10.1l4.8-.1zm5.1 98.5h9.7v4.7H29v5.1h-4.8v9.8h-5v-9.6h-5v9.6H9.6v-14.7h4.6v-4.8h5.1v4.6h5.1v-4.7zm14.7 4.7v-4.6h9.7v4.6h5.1v5.1h-5.1v5.1h-5.1v4.8h-4.8v-4.8h-10v-5H34v-5.1l5.1-.1v4.9h4.6v-4.9h-4.6zM196.5 34.6v5.1h-5v4.8h-5.1v-4.8h-4.7v-5h4.6v-4.9h-4.6v4.9h-5.1V19.9h5.1v5h9.7v9.8l5.1-.1zm-74 196.5h4.9v10h-24.3v-4.9h9.7v-9.8h9.8v4.7H118v4.9h4.6v-4.9zM48.8 29.5h-5v10H39V24.9h4.7v-5.1h19.8v5.1H48.8v4.6zm88.5 206.7v-9.8h5.1v4.6h4.9v-4.6h-4.9v-5.1h5v-5h4.6v19.6l-14.7.3z"/><path d="M127.8 5.1h5v-5h4.7v5h5.1v5.1h-5.1v4.6h-19.3v-4.6h9.8l-.2-5.1zM88.7 162.5v-5.1l11.5-.5c5.9-.3 11.8.3 17.7.5.1 0 .1.1.2.1v4.9h-4.9v4.9h-5v-5.1l-19.5.3zm83.3 29.4h-14.7v5h-5v-5h-4.8v-5.1h4.7v-4.7h5.1v4.7H172v5.1zM19.7 162.4H10v5H5v4.7H0v-9.5h4.9v-5h5v-5h4.7v4.8h5.1c-.1 1.8-.1 3.5 0 5zM182 187h9.8v10h-5v4.8H182V197h-10v-5.1h10.1l-.1-4.9zm-172.1-.1v5h9.6v5h-4.9v4.7H0V197h4.8v-10l5.1-.1c.1.1 0 0 0 0zm211.4 5.1v-5h-9.6v-9.6h4.6v4.9h19.6v4.7h-9.5v5.1l-5.1-.1zM83.6 5.1V.2h9.7v4.9h10.1v5.1h-10v4.7h-4.8V5.1h-5zM58.8 49.3v5h-4.6v4.6h-5v-4.5h-9.6v-5.1h19.2zM172 236.1v4.9h-14.6v-9.9h4.9v5.1l9.7-.1zM9.9 88.8v4.6H0V78.9h5v10l4.9-.1zm196.6 147.4h5v-5h4.7v4.9h5v4.9h-14.6l-.1-4.8c0-.1 0 0 0 0zM54.1 10.1v4.6h-10v-4.6h-4.6v-5h9.6v5.1l5-.1zm29.5 142.3H68.9v-9.7h4.8v5.1h10l-.1 4.6zM63.8 187h14.7v5.1H63.8V187zm.1-157.5v9.9h-9.7v-4.9H59v-5h4.9zM34.2 83.8h-9.6v-10h4.6v5.1h5.1c-.2 1.5-.2 3.2-.1 4.9zm29.4 14.7H54v-9.7h4.6v4.8h5.1l-.1 4.9zM191.5 187v-4.6h14.6v4.6h-14.6zm-98.4-9.8h-4.7v-9.7H98v4.8h-5l.1 4.9zM19.3 59.1h4.9v10h-4.9v-10zm69.1 108.4h-9.9v-5h9.9v5zm-39.5-64H44v-9.9h4.9v9.9zM4.6 123h5.1v10h-5l-.1-10zM103.1 5.1V.2h9.7v4.9h-9.7zM9.6 88.8v-4.9h9.6v4.9H9.6zm196.6-44.5v-4.6h9.7v4.6h-9.7zM68.6 142.7h-4.9v-5h4.9v5zm132.6 29.5h4.9v4.9h-4.9v-4.9zm-53.9 19.7v5h-5v-5.1l5 .1zm-83.7 5h-5v-5h5.1l-.1 5zm172.1-54.1h4.9v5h-4.9v-5zM162 226.4h-4.9v-5h4.9v5zm-132.9-64v-4.8H34v4.8h-4.9z"/><path d="M43.8 157.5h4.9v4.9h-4.9v-4.9c0-.1 0 0 0 0zm5-152.4V.2h5v4.9h-5zM19.3 162.5h5v5h-5.1l.1-5c.1-.1 0 0 0 0zm201.6-5.1v5h-5v-5h5zM201.2 44.3h5.1v5.1h-5l-.1-5.1zm34.5 34.5h4.9v5h-4.9v-5zm-157.4 10v-5h5v5h-5zm-34.4-4.9h4.8v4.9h-4.8v-4.9zm39.5-.1v-5.1h5.1v5l-5.1.1zm44.2-78.7h-4.9V.2h4.9v4.9c-.1 0 0 0 0 0zm44.2 0V.2h5v4.9h-5zM63.6 59v4.9h-4.9V59h4.9zm49.2-53.9h5v5h-5.1v-5zM53.9 34.6h-5v-5h5v5zM4.5 113.2H-.3v-4.9h4.8v4.9z"/><path d="M29 49.3h5v4.9h-4.9l-.1-4.9zm206.8 49.3h4.8v4.9h-4.8v-4.9zM63.5 197h4.9v4.6h-4.9V197c.1-.1 0 0 0 0zm-29.4-.1v4.6h-4.9V197l4.9-.1c0 .1 0 0 0 0zM4.6 59.1v-4.8h5V59l-5 .1zm132.6 177v4.9h-4.6v-4.9h4.6c.1.1 0 0 0 0zm24.8-4.9v-4.8h4.9v4.7l-4.9.1zm5-226.1h4.8V10h-4.7l-.1-4.9zM93.1 221.4h-4.7v-5H93l.1 5zM196.5 34.6v-4.9h4.6v4.9h-4.6zM53.8 206.7v-4.9h4.6v4.9h-4.6c0-.1 0 0 0 0zm182-9.7h4.8v4.5h-4.8V197zM14.3 98.5v4.9H9.7v-4.9h4.6zm-4.6 9.8h4.5v4.9H9.7v-4.9zM4.6 123H-.3v-4.6h4.9v4.6zm191.9-83.4h4.7v4.7h-4.8v-4.7zM9.6 123v-4.6h4.7v4.6H9.6zm78.8 34.4h-5v-5c.7-.1.9.2 1 .9.2 1.6.9 2.9 2.9 3.2.3.1.6.7 1.1.9zM142.3 59v5.1h-5V69h4.9v-4.9h5.1V69H162v-4.9h5.1v5.1h4.8v4.7h5v5h-9.7v5h-19.8V79H162v-4.9h-14.6v5h-14.7v5h-5.1V79h-5.1v-5h-4.7v-4.7h14.6V54.5h4.7v4.6l5.2-.1zm39.5 44.6h-5.1V88.8h5.1v-5.1h4.8v-5h5v5h14.8v14.8h-5v-9.7h-4.7v4.7h-5.1v-4.6h-4.9v4.6h4.9v5h-9.7l-.1 5.1zM88.3 78.8v-5H98v-4.7h-9.7V59H98v5h5v5h4.7v4.8h-4.6v5.1h4.6v4.9H93.1v-4.9l-4.8-.1zm44.3 93.4h-14.8v-4.7h4.7v-10h5v4.9h5V157h9.8v5.6h-5v5h-4.8l.1 4.6zM88.4 59h-4.9V44.2h4.9v5h14.7v5.1H88.4V59zm24.4 0v-4.8h14.6v9.7h-4.8V59h-9.8zm43.6 54.1v-9.5h10.5v4.5H162v4.9l-5.6.1z"/><path d="M162 93.5h5v-4.7h4.8v9.6H162v-4.9zm-34.5-9.7c-.2.3-.4.9-.6.9-4.7 0-9.4 0-14.1-.2 1.4-1 3.2-.3 4.9-.7v-4.9h4.8V84l5-.2zm49.3 0v-5.1h5v5l-5 .1zm-69.1-10h4.9v5h-4.9v-5zm64.1 15v-5h5v5.1l-5-.1zm-64-29.8h5.1v4.9h-5.1V59zm69 44.5v4.8h-4.9v-4.8h4.9zm-14.8-10h-5.1v-4.6h5l.1 4.6z"/><path d="M107.8 167.5v4.6h-4.6v-4.6h4.6zm0-113.2v4.8H103v-4.8h4.8zm29.5 29.6h4.9l.1.4c-.3.1-.7.4-1 .4-1.3 0-2.7.1-4.1-.1 0-.2.1-.5.1-.7zm-54 34.4v-5.1c.3.2.9.4.9.6.1 1.2.1 2.5 0 3.7 0 .3-.6.6-.9.8zM157 93.4v5h-.5v-4.8s.3-.1.5-.2c0 .1 0 0 0 0zm-29.4 88.8v-5h5v-5.1h9.8V192h-5v-5.1h-4.8v-4.8l-5 .1zm24.4 0h-4.6v-4.9h4.6v4.9zm29.8-132.9V59h4.7v5h5v5h4.9v9.7h-4.9v-5.1h-5.1V69h-4.7v-5H167v-9.6h4.7V59h5v-9.7h5.1zM201.2 64h10.1v5.1h-10.1V64zm10 9.7v5h-4.8v-5h4.8z"/><path d="M211.2 69h4.8v4.8l-4.8-.1V69zm-4.9 49.3h4.8v4.6h-4.8v-4.6zm-177.1 0H34v4.5h-4.8v-4.5zm142.5-83.7h5.1v9.6h-5.1v-9.6zM162 49.3v-4.9h4.9v4.9H162zm0 0v4.9h-4.9v-4.9h4.9zm0 14.7h-4.9v-4.9h4.9V64c0 .1 0 0 0 0zm24.5-19.7v5.1h-4.8v-5.1h4.8zm-19.4-24.4V15h4.6v4.9h-4.6zm-64-9.8h9.8v4.7h-5v5.1h-4.8v-9.8zm-24.8 9.8v-5.1h10.1v5.1H78.3zM93 34.6h-4.8v-9.8H93v9.8z"/><path d="M88.4 39.6h-5.1v-5.1h5.1v5.1zM73.2 19.8h5.1v5.1h-5.1v-5.1z"/><path d="M83.4 34.6h-5.1v-4.9h5.1v4.9zm34.4-.2v-4.8h4.6v4.8h-4.6zm-29.5 9.9v-4.8h4.8v4.8h-4.8zm48.9-14.8h5.1v5.1h-5.1v-5.1zm69.1 182.1v-4.8h4.8v4.8h-4.8zm-83.9-4.8v4.8h-4.5v-4.8h4.5zm.1-24.6h5.1v4.8h5.1v5.1h-10v-9.9zm69-137.9h5.1v5.1h-5.1v-5.1zM9.7 216.5h14.5V231H9.7v-14.5zM216 24.7V10.2h14.6v14.5H216zM9.7 10.2h14.5v14.5H9.7V10.2z"/><path d="M129.5 108.4h-2.7v5.9h2.7v-5.9zm0 7.4v-1.2h-2.7v.5c0 .4-.3.7-1 .9-.2 0-.4 0-.6.1-1.2.2-2 .2-2.5.2V107h4.2v.4h2l1.8-1.9 3.8 1.3c.3.1.5.2.5.5 0 .4-.4.9-1.2 1.4v.8l.1 4.8c.1.3-.2.6-1 .8-.4.1-1.3.2-2.5.4-.5.3-.7.3-.9.3zm6.6 20.2l-.7.1c3.3-2.7 4.4-6 4.3-9.3V124h4.1v.4h1.6l.9-.9c1.5.5 2.3.9 2.6.9.3.1.7.4.7.7 0 .2-.2.5-.5.7v5.2c0 .3.1.5.4.5h.4c.2 0 .6-.2.9-.8l1.5-3.8v.1l.2 3.2c0 .5.2 1 .5 1.3s.5.7.5 1.2c-.1 1.6-1.1 2.4-3.1 2.5h-2.9c-1.8 0-2.2-1-2.2-3.1V125h-1.6v.8c.1 5.4-2 8.6-7.6 10.2zm-1.3-18.8v-6.8h4.1v.9h2.4v-6.1l3.5.3c.6.1.4 1.2.4 1.8v1h2.2l1.6-2.2 3.3 2.1c.3.2.4.4.2.6s-.5.2-.9.2h-6.4v2h3.7l1.5-1.5 2.5 1.5c.7.4.3 1-.1 1.4-.3.3-2.6 1-6.8 2.1l2.5-2.7H139v4.9h2.6v-3.9l3.1.3c.4 0 .6 0 .7.3 0 .2 0 .7-.1 1.2v2h.5l1.1-1.1c1.7.8 2.6 1.3 2.5 1.4-.1.2-.1.4-.5.5h-3.6v.6c0 .9.3 1.3 1 1.3h1.4c.5 0 .8-.1 1.3-.9.5-.9.7-1.4.9-1.9s.2-.3.2 0v1.4a1.1 1.1 0 0 0 .6 1c.4.2.6.7.6 1.3-.2 1.2-1.3 1.9-3.5 2h-3.6c-2.6.1-3.3-1.1-3.1-3.6v-1.4h-2.6v1.6c-.1 7.4-2.5 13.8-8.1 16.8 2.4-4.4 4.1-10.6 4-17.1-.1.1-.3.1-.8.1h-5.7l-1.3 4.6h1.6l1.9-2 3.1 1.7c.2.2.4.4.4.6 0 .4-.4.9-1.2 1.3 0 .1 0 .2-.1.5-.3 2.1-.4 2.9-.8 4.9s-1.9 3.8-5.7 4c.1-2.4-1.3-4.3-3.6-5 0 0-.2-.3.2-.2.4 0 4 .4 4 .4.9.1 1.4-.2 1.6-1.4s.4-3.2.4-4h-1.3l-1.3 1.4c-.1 0-.2 0-.4-.1-1.3-.5-2.1-1.1-3.1-1.7-.2-.3-.1-1 .2-1.2.2-.3.5-1.1.6-1.4l.5-2.4h-2.8v-.6h8.6l1.7-1.9 3.3 1.8.4-.7zm-27.4.9v4h4.5v-4h-4.5zm4.5-4.7h-4.5v3.9h4.5v-3.9zm-4.5 9.5v3.9h4.5v-3.9h-4.5zm-10.3-17.3l3.9 1.8c.3.2.4.4.2.6s-.5.2-1 .2H88v-.8h7.4l1.7-1.8zm-1.2 6.5h-3.3v6.8h3.3v-6.8zm-4.8 16.8c-1-.1-1.5-.6-1.6-1.6 0-1.1-.3-2.8-.9-4.9 3.3 1.1 5.3 2.4 5.2 4-.1 1.4-1 2.3-2.7 2.5zm24.8 7c-.8 0-1.8-.2-2.2-1-.6-1.3-1.8-3.4-3.4-6.1 5.4 1.1 8.4 2.8 8.1 4.7-.2 1.4-1 2.2-2.5 2.4zm-27.9-.5l-1.3-4.9c2.5 0 4.7-.3 7.6-1 .6-3 .9-5.7 1.1-7.3l5.3 1.3c-.5 1.2-2.8 4-4.1 5.3h.4c1.5-.1 4.2-.4 5.1-.6.6-.1.7 0 .2.6-4.4 2.2-11.1 5.6-14.3 6.6zm7.9-14.4v-1.2h-3.3v.5c0 .3-.2.6-.8.8-.9.2-1.6.4-3.3.4v-11.2h4.1v.9h2.8l1.7-1.8 3.7 1.4c.5.1.7.2.6.5 0 .3-.4.8-1.3 1.4v6.8s-.1.7-.8.8c-1.3.4-2.2.6-3.4.7zm19.1-15.9l4 2.2c.3.2.4.4.2.6-.1.2-.4.2-.9.2h-5.9c-1.2 1.5-2.5 3-3.9 4.3h2.8l2.1-2.2 3.7 1.6c.3.2.5.4.5.6 0 .4-.4.9-1.3 1.4v13.3c0 .5-.1.8-.8 1-1.2.2-2.2.4-3.7.4v-1.3h-4.5v.4c0 .3-.2.9-.8 1l3.5 2c.5.2 0 .6-1 1.3-2.1 1.5-5.9 3.1-9.7 3.7l.4-.4a30.87 30.87 0 0 0 6.1-6.5c-1 .2-1.5.2-2.5.2v-17.1h3.3c1.5-1.7 2.8-3 3.8-4h-8.6v-.8h11.3l1.9-1.9z" fill="#ec0000"/></svg>