<?xml version="1.0" encoding="utf-8"?>
<!-- Generator: Adobe Illustrator 21.0.0, SVG Export Plug-In . SVG Version: 6.00 Build 0)  -->
<svg version="1.1" id="图层_1" xmlns="http://www.w3.org/2000/svg" xmlns:xlink="http://www.w3.org/1999/xlink" x="0px" y="0px"
	 viewBox="0 0 110 109" style="enable-background:new 0 0 110 109;" xml:space="preserve">
<style type="text/css">
	.st0{fill:#EC0000;}
</style>
<g>
	<path class="st0" d="M58.6,104.7c-4.3,0-8.6-2.2-11.2-6.1c-2.2,1.4-4.7,2.2-7.4,2.2c-2.3,0-4.6-0.6-6.7-1.8
		c-1.4,0.5-2.9,0.8-4.6,0.8c-7.5,0-13.6-6.1-13.6-13.6c0-1,0.1-2.1,0.4-3.3c-1.4-2.4-2.1-5.1-2.1-7.8c0-6.4,3.7-12,9.6-14.6
		c1.5-6.1,7.1-10.4,13.7-10.4c1.6,0,3,0.2,4.3,0.6c2-2.5,5.1-3.9,8.3-3.9c2.7,0,5.3,1,7.2,2.9c2.9-2.1,6.4-3.2,9.9-3.2
		c9.1,0,16.5,7.1,17.1,16c1.3,0.3,2.6,0.8,3.9,1.5l0,0c2.7,1.6,4.6,4.3,5.3,7.2c0.6,2.7,0.2,5.4-1.2,7.7c-0.8,1.4-2,2.5-3.5,3.4
		c0.6,1.6,0.9,3.2,0.9,4.9v0.1c0,7.2-5.9,13.1-13.1,13.1c0,0,0,0-0.1,0c-2.4,0-4.7-0.6-6.6-1.8c-1.3,2.2-3.2,3.9-5.4,5
		C62.1,104.3,60.3,104.7,58.6,104.7z M48.3,94l0.9,1.7c2.5,5.1,8.5,7.3,13.3,5.1c2.1-1,3.7-2.7,4.8-5L68,94l1.5,1.2
		c1.8,1.4,4,2.2,6.3,2.2c5.6,0,10.1-4.5,10.2-10.1v-0.1c0-1.7-0.4-3.4-1.2-4.9L84,80.8l1.5-0.6c1.6-0.7,2.7-1.6,3.5-2.9
		c1-1.6,1.3-3.5,0.9-5.4c-0.5-2.2-2-4.1-4-5.3c-1.3-0.8-2.6-1.2-3.9-1.3l-1.4-0.1v-1.6c0-7.8-6.3-14.1-14.1-14.1
		c-3.4,0-6.6,1.2-9.1,3.3l-1.2,1l-1-1.2c-1.4-1.8-3.6-2.8-5.9-2.8c-2.6,0-5.1,1.3-6.4,3.5l-0.7,1L41,53.9c-1.3-0.5-2.8-0.8-4.3-0.8
		c-5.4,0-10,3.7-10.9,8.8l-0.1,0.8L24.8,63c-5.1,2-8.4,6.7-8.4,12.1c0,2.4,0.7,4.8,2,6.8l0.4,0.6l-0.2,0.6c-0.3,1.1-0.4,2.1-0.4,3.1
		c0,5.8,4.7,10.6,10.6,10.6c1.6,0,2.9-0.3,4.1-0.8l0.8-0.4l0.7,0.5c1.3,0.8,3.3,1.8,5.8,1.8c2.5,0,4.9-0.9,6.8-2.5L48.3,94z"/>
</g>
<g>
	<g>
		<path class="st0" d="M97.3,71.9C97.3,71.9,97.3,71.9,97.3,71.9h-1.7c-0.8,0-1.5-0.7-1.5-1.5s0.7-1.5,1.5-1.5h1.7c0,0,0,0,0,0
			c0.7,0,1.2-0.1,1.7-0.3c0.8-0.3,1.6,0.1,1.9,0.8s-0.1,1.6-0.8,1.9C99.3,71.7,98.4,71.9,97.3,71.9z M88.6,71.9h-4
			c-0.8,0-1.5-0.7-1.5-1.5s0.7-1.5,1.5-1.5h4c0.8,0,1.5,0.7,1.5,1.5S89.4,71.9,88.6,71.9z M32.5,68.6c-0.8,0-1.5-0.7-1.5-1.5v-4
			c0-0.8,0.7-1.5,1.5-1.5s1.5,0.7,1.5,1.5v4C34,67.9,33.3,68.6,32.5,68.6z M102,65.5C102,65.5,101.9,65.5,102,65.5
			c-0.9,0-1.5-0.7-1.5-1.6c0-0.9,0.1-2.1,0.1-3.4l0-0.5c0-0.8,0.7-1.5,1.5-1.5c0,0,0,0,0,0c0.8,0,1.5,0.7,1.5,1.5l0,0.5
			c0,1.4,0,2.6-0.1,3.6C103.4,64.8,102.8,65.5,102,65.5z M32.5,57.6c-0.8,0-1.5-0.7-1.5-1.5v-4c0-0.8,0.7-1.5,1.5-1.5
			s1.5,0.7,1.5,1.5v4C34,56.9,33.3,57.6,32.5,57.6z M101.9,54.5c-0.8,0-1.5-0.7-1.5-1.5c0-1.4,0-2.8,0-4c0-0.8,0.7-1.5,1.5-1.5
			s1.5,0.7,1.5,1.5v0c0,1.2,0,2.6,0,4C103.5,53.8,102.8,54.5,101.9,54.5C102,54.5,101.9,54.5,101.9,54.5z M32.5,46.6
			c-0.8,0-1.5-0.7-1.5-1.5v-4c0-0.8,0.7-1.5,1.5-1.5s1.5,0.7,1.5,1.5v4C34,45.9,33.3,46.6,32.5,46.6z M98.2,44.8
			c-0.3,0-0.6-0.1-0.9-0.3c-1.1-0.9-2.4-1.5-3.2-1.9c-0.7-0.4-1-1.3-0.7-2c0.4-0.7,1.3-1,2-0.7c0.9,0.5,2.3,1.2,3.7,2.2
			c0.7,0.5,0.8,1.4,0.3,2.1C99.1,44.6,98.7,44.8,98.2,44.8z M87.9,42.1h-4c-0.8,0-1.5-0.7-1.5-1.5s0.7-1.5,1.5-1.5h4
			c0.8,0,1.5,0.7,1.5,1.5S88.8,42.1,87.9,42.1z M76.9,42.1h-4c-0.8,0-1.5-0.7-1.5-1.5s0.7-1.5,1.5-1.5h4c0.8,0,1.5,0.7,1.5,1.5
			S77.8,42.1,76.9,42.1z M65.9,42.1h-0.4c-1.5,0-2.9-0.4-4.2-1.1c-0.7-0.4-0.9-1.3-0.5-2.1c0.4-0.7,1.3-0.9,2.1-0.5
			c0.8,0.5,1.6,0.7,2.6,0.7h0.4c0.8,0,1.5,0.7,1.5,1.5S66.8,42.1,65.9,42.1z M32.5,35.6c-0.8,0-1.5-0.7-1.5-1.5v-4
			c0-0.8,0.7-1.5,1.5-1.5s1.5,0.7,1.5,1.5v4C34,34.9,33.3,35.6,32.5,35.6z M58.2,35.6c-0.6,0-1.2-0.4-1.4-1.1
			c-0.4-1.2-0.5-2.2-0.5-2.2l0-0.2v-2c0-0.8,0.7-1.5,1.5-1.5s1.5,0.7,1.5,1.5V32c0,0.2,0.1,0.8,0.4,1.6c0.2,0.8-0.2,1.6-1,1.9
			C58.5,35.5,58.4,35.6,58.2,35.6z M57.8,24.6c-0.8,0-1.5-0.7-1.5-1.5v-4c0-0.8,0.7-1.5,1.5-1.5s1.5,0.7,1.5,1.5v4
			C59.3,23.9,58.6,24.6,57.8,24.6z M32.5,24.6c-0.8,0-1.5-0.7-1.5-1.5v-4c0-0.8,0.7-1.5,1.5-1.5s1.5,0.7,1.5,1.5v4
			C34,23.9,33.3,24.6,32.5,24.6z M57.8,13.6c-0.8,0-1.5-0.7-1.5-1.5v-4c0-0.8,0.7-1.5,1.5-1.5s1.5,0.7,1.5,1.5v4
			C59.3,12.9,58.6,13.6,57.8,13.6z M32.5,13.6c-0.8,0-1.5-0.7-1.5-1.5v-4c0-0.8,0.7-1.5,1.5-1.5S34,7.3,34,8.1v4
			C34,12.9,33.3,13.6,32.5,13.6z"/>
	</g>
	<g>
		<path class="st0" d="M28.7,99.7c-1.8,0-3.7-0.4-5.5-1.2c-0.8-0.3-1.1-1.2-0.8-2c0.3-0.8,1.2-1.1,2-0.8c5.3,2.4,11.7,0,14.1-5.4
			c2.3-5.3-0.1-11.7-5.4-14.1c-0.8-0.3-1.1-1.2-0.7-2c0.3-0.8,1.2-1.1,2-0.7c3.8,1.8,6.5,5.1,7.5,9c1.4-1.3,3.1-2.2,4.9-2.7
			c0.8-0.2,1.6,0.3,1.8,1.1c0.2,0.8-0.3,1.6-1.1,1.8c-2.1,0.5-3.8,1.8-5,3.7c0,0.1-0.1,0.1-0.1,0.2c-0.1,1.7-0.4,3.4-1.1,5
			C39,96.7,33.9,99.7,28.7,99.7z M68.7,97.8c-0.2,0-0.4,0-0.6-0.1c-2.9-1.3-5.4-6-5.4-9c0-0.8,0.7-1.5,1.5-1.5s1.5,0.7,1.5,1.5
			c0,2.1,2,5.5,3.6,6.2c0.8,0.3,1.1,1.2,0.8,2C69.8,97.5,69.3,97.8,68.7,97.8z M86.1,83.1c-0.6,0-1.1-0.3-1.4-0.9
			c-1.3-2.8-3.8-4.2-7.3-4.2c-0.8,0-1.5-0.7-1.5-1.5s0.7-1.5,1.5-1.5c4.7,0,8.2,2.1,10.1,6c0.4,0.8,0,1.6-0.7,2
			C86.5,83.1,86.3,83.1,86.1,83.1z M66,79.8c-8.5,0-15.9-6.9-16.6-15.4c-0.5-6.1,2.7-10.8,4.5-12.4c0,0,0.1-0.1,0.1-0.1l0.1-0.1l0,0
			c0.3-0.2,0.5-0.4,0.7-0.4l1.1-0.4l0.6,1c0.3,0.5,0.4,1.2-0.5,2.1c0,0,0,0-0.1,0.1c-0.8,0.9-4,4.7-3.6,10c0.5,7,6.6,12.6,13.6,12.6
			c0.8,0,1.5,0.7,1.5,1.5S66.8,79.8,66,79.8z M65.1,66.9h-4.8c-0.8,0-1.5-0.7-1.5-1.5s0.7-1.5,1.5-1.5h4.8c4.3,0,4.6-3.6,4.6-4.7V40
			c0-5.1,7.4-8.7,8.3-9.1l0.3-0.1h10.2c3.6,0,5.5-4.4,5.9-5.5V11.5l-4,3.7c-0.6,0.6-1.6,0.5-2.1-0.1c-0.6-0.6-0.5-1.6,0.1-2.1
			l7.5-6.9l7.4,7c0.6,0.6,0.6,1.5,0.1,2.1c-0.6,0.6-1.5,0.6-2.1,0.1l-3.9-3.6v14.3l-0.1,0.2c-0.1,0.3-2.6,7.7-8.8,7.7h-9.6
			c-1.9,0.9-6.2,3.6-6.2,6.2v19.2C72.7,63,70.3,66.9,65.1,66.9z M43.7,61.5c-0.8,0-1.5-0.7-1.5-1.5V37.7c-0.9-2.2-3.6-7.1-6.9-7.1
			h-9.9c-3.5,0-5.9,2.5-5.9,6.2l0,1.6c-0.1,3.7-2.5,7.3-7.6,7.3h-1.8l3.7,4c0.6,0.6,0.5,1.6-0.1,2.1c-0.6,0.6-1.6,0.5-2.1-0.1
			l-6.9-7.5l7-7.4c0.6-0.6,1.5-0.6,2.1-0.1c0.6,0.6,0.6,1.5,0.1,2.1l-3.6,3.9h1.7c4.3,0,4.6-3.6,4.6-4.7v-1.2c0-5.3,3.7-9.2,8.9-9.2
			h9.9c6.2,0,9.7,8.9,9.8,9.3l0.1,0.3V60C45.2,60.8,44.5,61.5,43.7,61.5z M51.3,14.7c-0.4,0-0.8-0.2-1.1-0.5
			c-0.6-0.6-0.5-1.6,0.1-2.1l7.5-6.9l7.4,7c0.6,0.6,0.6,1.5,0.1,2.1c-0.6,0.6-1.5,0.6-2.1,0.1l-5.4-5l-5.5,5.1
			C52,14.6,51.7,14.7,51.3,14.7z M39,14.7c-0.4,0-0.7-0.1-1-0.4l-5.5-5.1L27,14.3c-0.6,0.6-1.6,0.5-2.1-0.1
			c-0.6-0.6-0.5-1.6,0.1-2.1l7.5-6.9l7.5,6.9c0.6,0.6,0.6,1.5,0.1,2.1C39.8,14.5,39.4,14.7,39,14.7z"/>
	</g>
</g>
</svg>
