<?xml version="1.0" encoding="utf-8"?>
<!-- Generator: Adobe Illustrator 21.0.0, SVG Export Plug-In . SVG Version: 6.00 Build 0)  -->
<svg version="1.1" id="图层_1" xmlns="http://www.w3.org/2000/svg" xmlns:xlink="http://www.w3.org/1999/xlink" x="0px" y="0px"
	 viewBox="0 0 110 109" style="enable-background:new 0 0 110 109;" xml:space="preserve">
<style type="text/css">
	.st0{fill:#EC0000;}
</style>
<g>
	<path class="st0" d="M53.2,22.3c-4.2,0-7.7-3.5-7.7-7.7c0-4.2,3.5-7.7,7.7-7.7s7.7,3.5,7.7,7.7C60.9,18.8,57.4,22.3,53.2,22.3z
		 M53.2,9.9c-2.6,0-4.7,2.1-4.7,4.7c0,2.6,2.1,4.7,4.7,4.7s4.7-2.1,4.7-4.7C57.9,12,55.8,9.9,53.2,9.9z"/>
</g>
<g>
	<path class="st0" d="M26.7,57.4c-7.5,0-13.6-6.1-13.6-13.6s6.1-13.6,13.6-13.6s13.6,6.1,13.6,13.6S34.2,57.4,26.7,57.4z M26.7,33.2
		c-5.8,0-10.6,4.8-10.6,10.6s4.8,10.6,10.6,10.6s10.6-4.8,10.6-10.6S32.5,33.2,26.7,33.2z"/>
</g>
<g>
	<path class="st0" d="M24.4,85.1c-4.7,0-8.6-3.9-8.6-8.6s3.9-8.6,8.6-8.6s8.6,3.9,8.6,8.6S29.1,85.1,24.4,85.1z M24.4,70.9
		c-3.1,0-5.6,2.5-5.6,5.6s2.5,5.6,5.6,5.6s5.6-2.5,5.6-5.6S27.5,70.9,24.4,70.9z"/>
</g>
<g>
	<path class="st0" d="M54.4,103.4c-5.2,0-9.5-4.3-9.5-9.5s4.3-9.5,9.5-9.5c5.2,0,9.5,4.3,9.5,9.5S59.6,103.4,54.4,103.4z M54.4,87.4
		c-3.6,0-6.5,2.9-6.5,6.5s2.9,6.5,6.5,6.5c3.6,0,6.5-2.9,6.5-6.5S58,87.4,54.4,87.4z"/>
</g>
<g>
	<path class="st0" d="M85.9,89c-5.7,0-10.4-4.7-10.4-10.4s4.7-10.4,10.4-10.4s10.4,4.7,10.4,10.4S91.6,89,85.9,89z M85.9,71.2
		c-4.1,0-7.4,3.3-7.4,7.4c0,4.1,3.3,7.4,7.4,7.4c4.1,0,7.4-3.3,7.4-7.4C93.3,74.5,90,71.2,85.9,71.2z"/>
</g>
<g>
	<path class="st0" d="M85.9,52.2c-5.5,0-9.9-4.4-9.9-9.9s4.4-9.9,9.9-9.9s9.9,4.4,9.9,9.9S91.4,52.2,85.9,52.2z M85.9,35.4
		c-3.8,0-6.9,3.1-6.9,6.9s3.1,6.9,6.9,6.9s6.9-3.1,6.9-6.9S89.7,35.4,85.9,35.4z"/>
</g>
<g>
	<g>
		<path class="st0" d="M62.6,90.8l-0.3-0.4c-0.4-0.6-0.2-1.4,0.4-1.7l13-7.7c0.6-0.4,1.4-0.2,1.7,0.4l0.3,0.4
			c0.4,0.6,0.2,1.4-0.4,1.7l-13,7.7C63.7,91.6,63,91.4,62.6,90.8z M44.6,91.1L30.1,83c-0.6-0.3-0.8-1.1-0.5-1.7l0.2-0.4
			c0.3-0.6,1.1-0.8,1.7-0.5L46,88.5c0.6,0.3,0.8,1.1,0.5,1.7l-0.2,0.4C45.9,91.2,45.2,91.4,44.6,91.1z M85.9,69.5h-0.5
			c-0.7,0-1.2-0.6-1.2-1.2V52.3c0-0.7,0.6-1.2,1.2-1.2h0.5c0.7,0,1.2,0.6,1.2,1.2v15.9C87.1,68.9,86.5,69.5,85.9,69.5z M24.8,69
			h-0.5c-0.7,0-1.2-0.6-1.2-1.2v-4.1c0-0.7,0.6-1.2,1.2-1.2h0.5c0.7,0,1.2,0.6,1.2,1.2v4.1C26,68.4,25.4,69,24.8,69z"/>
	</g>
	<g>
		<path class="st0" d="M50.6,88.1c-0.5,0-1-0.3-1.3-0.8l-1.9-3.5c-0.4-0.7-0.1-1.6,0.6-2c0.7-0.4,1.6-0.1,2,0.6l1.9,3.5
			c0.4,0.7,0.1,1.6-0.6,2C51.1,88.1,50.9,88.1,50.6,88.1z M45.3,78.5c-0.5,0-1-0.3-1.3-0.8l-1.9-3.5c-0.4-0.7-0.1-1.6,0.6-2
			c0.7-0.4,1.6-0.1,2,0.6l1.9,3.5c0.4,0.7,0.1,1.6-0.6,2C45.8,78.4,45.6,78.5,45.3,78.5z M40,68.8c-0.5,0-1-0.3-1.3-0.8l-1.9-3.5
			c-0.4-0.7-0.1-1.6,0.6-2c0.7-0.4,1.6-0.1,2,0.6l1.9,3.5c0.4,0.7,0.1,1.6-0.6,2C40.5,68.8,40.3,68.8,40,68.8z M34.7,59.2
			c-0.5,0-1-0.3-1.3-0.8l-1.9-3.5c-0.4-0.7-0.1-1.6,0.6-2c0.7-0.4,1.6-0.1,2,0.6L36,57c0.4,0.7,0.1,1.6-0.6,2
			C35.2,59.1,35,59.2,34.7,59.2z"/>
	</g>
	<g>
		<path class="st0" d="M38.8,45.3l-0.1-3l38.9-1.5l0.1,3L38.8,45.3z M79.4,36.3L57.2,20.7l1.7-2.5l22.2,15.6L79.4,36.3z"/>
	</g>
	<g>
		<path class="st0" d="M51.2,87.8l-7.4-2c-0.8-0.2-1.3-1-1.1-1.8c0.2-0.8,1-1.3,1.8-1.1l4.8,1.2l1.6-4.7c0.3-0.8,1.1-1.2,1.9-0.9
			c0.8,0.3,1.2,1.1,0.9,1.9L51.2,87.8z M85.6,70.5l-5.7-5.2c-0.6-0.6-0.7-1.5-0.1-2.1s1.5-0.7,2.1-0.1l3.7,3.4l3.6-3.4
			c0.6-0.6,1.6-0.5,2.1,0.1c0.6,0.6,0.5,1.6-0.1,2.1L85.6,70.5z M29.1,63c-0.4,0-0.7-0.1-1-0.4l-3.7-3.4l-3.7,3.4
			c-0.6,0.6-1.6,0.5-2.1-0.1c-0.6-0.6-0.5-1.6,0.1-2.1l5.7-5.2l5.7,5.2c0.6,0.6,0.7,1.5,0.1,2.1C29.9,62.8,29.5,63,29.1,63z
			 M43.9,49.9c-0.4,0-0.8-0.2-1.1-0.5l-5.2-5.6l5.2-5.7c0.6-0.6,1.5-0.7,2.1-0.1c0.6,0.6,0.7,1.5,0.1,2.1l-3.4,3.7l3.4,3.6
			c0.6,0.6,0.5,1.6-0.1,2.1C44.6,49.8,44.3,49.9,43.9,49.9z M59,27.4c-0.8,0-1.4-0.6-1.5-1.4l-0.7-7.7l7.7-1.3
			c0.8-0.1,1.6,0.4,1.7,1.2c0.1,0.8-0.4,1.6-1.2,1.7L60,20.8l0.5,4.9c0.1,0.8-0.5,1.6-1.4,1.6C59.1,27.4,59,27.4,59,27.4z"/>
	</g>
</g>
</svg>
