<?xml version="1.0" encoding="utf-8"?>
<!-- Generator: Adobe Illustrator 21.0.0, SVG Export Plug-In . SVG Version: 6.00 Build 0)  -->
<svg version="1.1" id="图层_2" xmlns="http://www.w3.org/2000/svg" xmlns:xlink="http://www.w3.org/1999/xlink" x="0px" y="0px"
	 viewBox="0 0 110 109" style="enable-background:new 0 0 110 109;" xml:space="preserve">
<style type="text/css">
	.st0{fill:#EC0000;}
</style>
<g>
	<g>
		<path class="st0" d="M67.3,46.1H52c-0.5,0-0.9-0.2-1.2-0.6L34,22.1H19c-0.8,0-1.5-0.7-1.5-1.5s0.7-1.5,1.5-1.5h15.8
			c0.5,0,0.9,0.2,1.2,0.6l16.8,23.4h14.5c0.8,0,1.5,0.7,1.5,1.5S68.1,46.1,67.3,46.1z"/>
	</g>
	<g>
		<path class="st0" d="M50.3,91.8H34.5c-0.8,0-1.5-0.7-1.5-1.5s0.7-1.5,1.5-1.5h15l16.8-23.4c0.3-0.4,0.7-0.6,1.2-0.6h20.2
			c0.8,0,1.5,0.7,1.5,1.5s-0.7,1.5-1.5,1.5H68.3L51.5,91.2C51.2,91.6,50.8,91.8,50.3,91.8z"/>
	</g>
	<g>
		<rect x="18" y="61.1" class="st0" width="25.5" height="3"/>
	</g>
	<g>
		<g>
			<path class="st0" d="M104.7,23.8h-2c-0.8,0-1.5-0.7-1.5-1.5s0.7-1.5,1.5-1.5h2c0.8,0,1.5,0.7,1.5,1.5S105.6,23.8,104.7,23.8z"/>
		</g>
		<g>
			<path class="st0" d="M96.4,23.8h-3.6c-0.8,0-1.5-0.7-1.5-1.5s0.7-1.5,1.5-1.5h3.6c0.8,0,1.5,0.7,1.5,1.5S97.2,23.8,96.4,23.8z
				 M86.4,23.8h-3.6c-0.8,0-1.5-0.7-1.5-1.5s0.7-1.5,1.5-1.5h3.6c0.8,0,1.5,0.7,1.5,1.5S87.2,23.8,86.4,23.8z M76.4,23.8h-3.6
				c-0.8,0-1.5-0.7-1.5-1.5s0.7-1.5,1.5-1.5h3.6c0.8,0,1.5,0.7,1.5,1.5S77.2,23.8,76.4,23.8z"/>
		</g>
		<g>
			<path class="st0" d="M66.4,23.8h-2c-0.8,0-1.5-0.7-1.5-1.5s0.7-1.5,1.5-1.5h2c0.8,0,1.5,0.7,1.5,1.5S67.2,23.8,66.4,23.8z"/>
		</g>
		<g>
			<path class="st0" d="M96.4,23.8h-3.6c-0.8,0-1.5-0.7-1.5-1.5s0.7-1.5,1.5-1.5h3.6c0.8,0,1.5,0.7,1.5,1.5S97.2,23.8,96.4,23.8z
				 M86.4,23.8h-3.6c-0.8,0-1.5-0.7-1.5-1.5s0.7-1.5,1.5-1.5h3.6c0.8,0,1.5,0.7,1.5,1.5S87.2,23.8,86.4,23.8z M76.4,23.8h-3.6
				c-0.8,0-1.5-0.7-1.5-1.5s0.7-1.5,1.5-1.5h3.6c0.8,0,1.5,0.7,1.5,1.5S77.2,23.8,76.4,23.8z"/>
		</g>
	</g>
	<g>
		<g>
			<path class="st0" d="M65.9,101.5h-2c-0.8,0-1.5-0.7-1.5-1.5s0.7-1.5,1.5-1.5h2c0.8,0,1.5,0.7,1.5,1.5S66.7,101.5,65.9,101.5z"/>
		</g>
		<g>
			<path class="st0" d="M57.5,101.5h-3.6c-0.8,0-1.5-0.7-1.5-1.5s0.7-1.5,1.5-1.5h3.6c0.8,0,1.5,0.7,1.5,1.5S58.4,101.5,57.5,101.5z
				 M47.6,101.5H44c-0.8,0-1.5-0.7-1.5-1.5s0.7-1.5,1.5-1.5h3.6c0.8,0,1.5,0.7,1.5,1.5S48.4,101.5,47.6,101.5z"/>
		</g>
		<g>
			<path class="st0" d="M37.7,101.5h-2c-0.8,0-1.5-0.7-1.5-1.5s0.7-1.5,1.5-1.5h2c0.8,0,1.5,0.7,1.5,1.5S38.5,101.5,37.7,101.5z"/>
		</g>
	</g>
	<g>
		<g>
			<path class="st0" d="M103.2,91.8h-2c-0.8,0-1.5-0.7-1.5-1.5s0.7-1.5,1.5-1.5h2c0.8,0,1.5,0.7,1.5,1.5S104,91.8,103.2,91.8z"/>
		</g>
		<g>
			<path class="st0" d="M95.3,91.8h-3.4c-0.8,0-1.5-0.7-1.5-1.5s0.7-1.5,1.5-1.5h3.4c0.8,0,1.5,0.7,1.5,1.5S96.1,91.8,95.3,91.8z"/>
		</g>
		<g>
			<path class="st0" d="M86,91.8h-2c-0.8,0-1.5-0.7-1.5-1.5s0.7-1.5,1.5-1.5h2c0.8,0,1.5,0.7,1.5,1.5S86.9,91.8,86,91.8z"/>
		</g>
	</g>
	<g>
		<g>
			<path class="st0" d="M41.2,9.8h-2c-0.8,0-1.5-0.7-1.5-1.5s0.7-1.5,1.5-1.5h2c0.8,0,1.5,0.7,1.5,1.5S42,9.8,41.2,9.8z"/>
		</g>
		<g>
			<path class="st0" d="M33.3,9.8h-3.4c-0.8,0-1.5-0.7-1.5-1.5s0.7-1.5,1.5-1.5h3.4c0.8,0,1.5,0.7,1.5,1.5S34.1,9.8,33.3,9.8z"/>
		</g>
		<g>
			<path class="st0" d="M24,9.8h-2c-0.8,0-1.5-0.7-1.5-1.5s0.7-1.5,1.5-1.5h2c0.8,0,1.5,0.7,1.5,1.5S24.9,9.8,24,9.8z"/>
		</g>
	</g>
	<g>
		<path class="st0" d="M12,27.8c-4.2,0-7.5-3.4-7.5-7.5s3.4-7.5,7.5-7.5s7.5,3.4,7.5,7.5S16.1,27.8,12,27.8z M12,15.8
			c-2.5,0-4.5,2-4.5,4.5s2,4.5,4.5,4.5s4.5-2,4.5-4.5S14.5,15.8,12,15.8z"/>
	</g>
	<g>
		<path class="st0" d="M57.8,29.8c-4.2,0-7.5-3.4-7.5-7.5s3.4-7.5,7.5-7.5s7.5,3.4,7.5,7.5S62,29.8,57.8,29.8z M57.8,17.8
			c-2.5,0-4.5,2-4.5,4.5s2,4.5,4.5,4.5s4.5-2,4.5-4.5S60.3,17.8,57.8,17.8z"/>
	</g>
	<g>
		<path class="st0" d="M27.8,51.8c-4.2,0-7.5-3.4-7.5-7.5s3.4-7.5,7.5-7.5s7.5,3.4,7.5,7.5S32,51.8,27.8,51.8z M27.8,39.8
			c-2.5,0-4.5,2-4.5,4.5s2,4.5,4.5,4.5c2.5,0,4.5-2,4.5-4.5S30.3,39.8,27.8,39.8z"/>
	</g>
	<g>
		<path class="st0" d="M11.8,70.1c-4.2,0-7.5-3.4-7.5-7.5S7.6,55,11.8,55s7.5,3.4,7.5,7.5S16,70.1,11.8,70.1z M11.8,58
			c-2.5,0-4.5,2-4.5,4.5c0,2.5,2,4.5,4.5,4.5c2.5,0,4.5-2,4.5-4.5C16.3,60.1,14.3,58,11.8,58z"/>
	</g>
	<g>
		<path class="st0" d="M49.8,70.1c-4.2,0-7.5-3.4-7.5-7.5s3.4-7.5,7.5-7.5s7.5,3.4,7.5,7.5S54,70.1,49.8,70.1z M49.8,58
			c-2.5,0-4.5,2-4.5,4.5c0,2.5,2,4.5,4.5,4.5c2.5,0,4.5-2,4.5-4.5C54.3,60.1,52.3,58,49.8,58z"/>
	</g>
	<g>
		<path class="st0" d="M27.8,98.1c-4.2,0-7.5-3.4-7.5-7.5s3.4-7.5,7.5-7.5s7.5,3.4,7.5,7.5S32,98.1,27.8,98.1z M27.8,86
			c-2.5,0-4.5,2-4.5,4.5s2,4.5,4.5,4.5c2.5,0,4.5-2,4.5-4.5S30.3,86,27.8,86z"/>
	</g>
	<g>
		<path class="st0" d="M73.8,98.1c-4.2,0-7.5-3.4-7.5-7.5s3.4-7.5,7.5-7.5s7.5,3.4,7.5,7.5S78,98.1,73.8,98.1z M73.8,86
			c-2.5,0-4.5,2-4.5,4.5s2,4.5,4.5,4.5s4.5-2,4.5-4.5S76.3,86,73.8,86z"/>
	</g>
	<g>
		<path class="st0" d="M73.8,52.1c-4.2,0-7.5-3.4-7.5-7.5s3.4-7.5,7.5-7.5s7.5,3.4,7.5,7.5S78,52.1,73.8,52.1z M73.8,40
			c-2.5,0-4.5,2-4.5,4.5s2,4.5,4.5,4.5s4.5-2,4.5-4.5S76.3,40,73.8,40z"/>
	</g>
	<g>
		<path class="st0" d="M93.8,74.1c-4.2,0-7.5-3.4-7.5-7.5s3.4-7.5,7.5-7.5s7.5,3.4,7.5,7.5S98,74.1,93.8,74.1z M93.8,62
			c-2.5,0-4.5,2-4.5,4.5s2,4.5,4.5,4.5s4.5-2,4.5-4.5S96.3,62,93.8,62z"/>
	</g>
</g>
</svg>
